<?xml version="1.0" encoding="UTF-8"?>
<svg id="Layer_2" data-name="Layer 2" xmlns="http://www.w3.org/2000/svg" viewBox="0 0 500 500">
  <defs>
    <style>
      .cls-1 {
        fill: #232323;
      }

      .cls-2 {
        fill: #161616;
      }
    </style>
  </defs>
  <g id="OBJECTS">
    <g>
      <rect class="cls-1" width="500" height="500"/>
      <path class="cls-2" d="M402.69,395.81c.44,3.71-10.8,9-24.05,13.91-26.88,9.96-55.08,15.87-83.65,18.25-8.46.7-16.93,1.16-25.4,1.46.37-1.34.53-2.77.35-4.22l-12.25-102.49,5.96-10.36c1.16-2.01.2-4.86-1.75-5.19l-5.14-.87c-4.49-.76-9.05-.76-13.54,0l-5.14.87c-1.94.33-2.9,3.18-1.75,5.19l5.96,10.36-12.25,102.49c-.17,1.45-.02,2.88.35,4.22-8.47-.31-16.94-.76-25.39-1.46-28.57-2.38-56.78-8.3-83.66-18.26-13.25-4.91-24.48-10.2-24.05-13.91,1.34-11.36,3.48-24.54,5.28-34.87,2.78-15.91,10.31-30.75,22.09-41.8,28.76-26.97,66.69-31.78,72.23-32.35,2.43,9.43,17.08,24.94,25.24,33.02,1.7,1.68,4.76.57,5.04-1.88,1.02-8.85,7.18-17.44,11.05-22.08,1.41-1.69.87-4.2-1.1-4.95-18.2-6.97-28.94-22.32-28.94-22.32l1.75-11.4s-12.46-18.71-17.3-30.43c-5.25-1.77-10.78-6.43-14.86-13.13-6.72-10.82-6.72-22.8-.29-26.61.58-.29.88-.58,1.46-.58l.06-.03c-4.74-18.45-8.25-42.89-.35-60.2l-8.77,10.52s4.4-66.17,69.69-66.17c25.16,0,55.13,5.84,62.82,27.82,0,0,25.37,5.84,25.37,53.26,0,13.45-3.77,29.11-5.26,35.08,6.43,4.09,6.14,16.08-.29,26.9-4.08,6.71-9.61,11.37-14.86,13.13-4.61,11.18-10.5,21.55-17.28,30.23l1.73,11.6s-10.74,15.35-28.94,22.32c-1.97.76-2.51,3.26-1.1,4.95,3.87,4.63,10.03,13.23,11.05,22.08.28,2.44,3.34,3.56,5.04,1.88,8.16-8.08,22.81-23.59,25.24-33.02,5.54.57,43.46,5.38,72.22,32.35,11.78,11.05,19.31,25.89,22.09,41.8,1.8,10.33,3.94,23.51,5.28,34.87Z"/>
    </g>
  </g>
</svg>