<?xml version="1.0" encoding="UTF-8"?>
<svg id="Layer_2" data-name="Layer 2" xmlns="http://www.w3.org/2000/svg" viewBox="0 0 500 500">
  <defs>
    <style>
      .cls-1 {
        fill: #232323;
      }

      .cls-2 {
        fill: #161616;
      }
    </style>
  </defs>
  <g id="OBJECTS">
    <rect class="cls-1" width="500" height="500"/>
    <path class="cls-2" d="M287.31,288.61l-37.31,119.52-37.31-119.52,3.4-15.84c-37.87-4.49-57.58-15.89-66.17-22.6-3-2.34-3.61-6.65-1.28-9.66,12.89-16.68,18.58-54.09,20.35-88.67,3.98-77.9,70.25-81.21,81-81.21,7.83,0,41.77,0,51.27,24.95,19.51-2.05,30.79,15.53,31.19,57.41.32,33.99,8.17,72.83,18.99,87.66,2.22,3.04,1.77,7.22-1.15,9.59-8.34,6.77-27.75,18.2-66.36,22.62l3.38,15.76ZM393.23,362.82c-2.62-15.02-8.27-30.5-20.35-39.81-13.46-10.37-51.09-24.14-72.35-30.74l12.93,31.52c1.12,2.74-.48,5.83-3.37,6.48l-16.21,3.67,12.98,11.04c2.14,1.82,2.26,5.09.25,7.06l-57.11,56.09-57.11-56.09c-2.01-1.97-1.89-5.24.25-7.06l12.98-11.04-16.21-3.67c-2.89-.65-4.5-3.75-3.37-6.48l12.93-31.52c-21.26,6.6-58.89,20.37-72.35,30.74-12.08,9.31-17.73,24.79-20.35,39.81-1.74,9.98-3.78,22.61-5.07,33.52-.42,3.6,10.48,8.74,23.34,13.51,26.09,9.67,53.48,15.41,81.21,17.72,14.56,1.21,29.15,1.82,43.75,1.81,14.6,0,29.19-.6,43.75-1.81,27.73-2.31,55.11-8.05,81.21-17.72,12.86-4.77,23.77-9.9,23.34-13.51-1.28-10.91-3.33-23.54-5.07-33.52Z"/>
  </g>
</svg>