<?xml version="1.0" encoding="UTF-8"?>
<svg id="Layer_2" data-name="Layer 2" xmlns="http://www.w3.org/2000/svg" xmlns:xlink="http://www.w3.org/1999/xlink" viewBox="0 0 465.6 520.76">
  <defs>
    <style>
      .cls-1 {
        fill: url(#linear-gradient);
      }
    </style>
    <linearGradient id="linear-gradient" x1="52.29" y1="442.14" x2="413.3" y2="81.12" gradientTransform="translate(0 522) scale(1 -1)" gradientUnits="userSpaceOnUse">
      <stop offset=".02" stop-color="#ffb700"/>
      <stop offset="1" stop-color="#ff6d00"/>
    </linearGradient>
  </defs>
  <g id="Layer_2-2" data-name="Layer 2">
    <path class="cls-1" d="M202.32,88.98l-26.96,15.57v-62.95L247.41,0l70.85,40.91v63.64l-26.96-15.57v-32.51l-43.89-25.34-45.09,26.03v31.82h0ZM69.13,201.08l-27.56-15.91v-52.06l43.89-25.34,28.16,16.26,26.96-15.56-55.11-31.82L14.61,117.54v83.19l54.52,31.48v-31.13ZM72.04,388.38l-45.09-26.03v-50.68l28.16-16.26v-31.13L0,296.1v81.81l72.04,41.59,54.52-31.48-26.96-15.56-27.56,15.91h0ZM263.28,463.6l-45.09,26.03-43.89-25.34v-32.51l-26.96-15.57v63.64l70.85,40.91,72.04-41.59v-62.95l-26.96,15.57v31.82h0ZM396.47,319.68l27.56,15.91v52.06l-43.89,25.34-28.16-16.26-26.96,15.56,55.11,31.82,70.85-40.91v-83.19l-54.52-31.48v31.15ZM339.04,132.72l26.96,15.56,27.56-15.91,45.09,26.03v50.68l-28.16,16.26v31.13l55.11-31.82v-81.81l-72.04-41.6-54.52,31.48h0ZM232.8,90.65l146.99,84.87v169.74l-146.99,84.87-146.99-84.87v-169.74l146.99-84.87ZM232.8,397.44l118.7-68.53v-137.07l-118.7-68.53-118.7,68.53v137.07l118.7,68.53Z"/>
  </g>
</svg>