<?xml version="1.0" encoding="UTF-8"?>
<svg id="Layer_2" data-name="Layer 2" xmlns="http://www.w3.org/2000/svg" xmlns:xlink="http://www.w3.org/1999/xlink" viewBox="0 0 2411.09 520.76">
  <defs>
    <style>
      .cls-1 {
        fill: url(#linear-gradient);
      }
    </style>
    <linearGradient id="linear-gradient" x1="535.27" y1="-403.12" x2="1846.58" y2="908.19" gradientUnits="userSpaceOnUse">
      <stop offset=".02" stop-color="#ffb700"/>
      <stop offset="1" stop-color="#ff6d00"/>
    </linearGradient>
  </defs>
  <g id="Layer_1-2" data-name="Layer 1">
    <path class="cls-1" d="M202.32,88.98l-26.96,15.57v-62.95L247.41,0l70.85,40.91v63.64l-26.96-15.57v-32.51l-43.89-25.34-45.09,26.03v31.82ZM69.13,201.08l-27.56-15.91v-52.06l43.89-25.34,28.16,16.26,26.96-15.56-55.11-31.82L14.61,117.54v83.19l54.52,31.48v-31.13ZM72.04,388.38l-45.09-26.03v-50.68l28.16-16.26v-31.13L0,296.1v81.81l72.04,41.59,54.52-31.48-26.96-15.56-27.56,15.91ZM263.28,463.6l-45.09,26.03-43.89-25.34v-32.51l-26.96-15.57v63.64l70.85,40.91,72.04-41.59v-62.95l-26.96,15.57v31.82ZM396.47,319.68l27.56,15.91v52.06l-43.89,25.34-28.16-16.26-26.96,15.56,55.11,31.82,70.85-40.91v-83.19l-54.52-31.48v31.13ZM339.04,132.72l26.96,15.56,27.56-15.91,45.09,26.03v50.68l-28.16,16.26v31.13l55.11-31.82v-81.81l-72.04-41.6-54.52,31.48ZM232.8,90.65l146.99,84.87v169.74l-146.99,84.87-146.99-84.87v-169.74l146.99-84.87ZM232.8,397.44l118.7-68.53v-137.07l-118.7-68.53-118.7,68.53v137.07l118.7,68.53ZM740.69,250.99h-100.23v-94.58h-35.47v225.52h35.47v-101.29h100.23v101.29h35.47v-225.52h-35.47v94.58ZM840.92,144.05c-6.82,0-11.91,1.74-15.26,5.21-3.35,3.47-5.03,8.27-5.03,14.38v.71c0,6.12,1.68,10.91,5.03,14.38,3.35,3.47,8.44,5.21,15.26,5.21s11.91-1.7,15.26-5.12c3.35-3.41,5.03-8.23,5.03-14.47v-.71c0-6.12-1.68-10.91-5.03-14.38-3.35-3.47-8.44-5.21-15.26-5.21ZM823.62,381.92h34.59v-172.58h-34.59v172.58ZM970.62,358.63h-4.06l-43.94-149.29h-35.82l53.65,172.58h56.29l53.65-172.58h-35.82l-43.94,149.29ZM1207.79,239.52c5.53,11.06,8.29,24.18,8.29,39.35v6.53c0,4-.18,8.06-.53,12.18-.35,4.12-.82,8.06-1.41,11.82h-113.29v4.24c0,6.47.97,12.35,2.91,17.65s5.06,9.85,9.35,13.68c4.29,3.82,9.85,6.77,16.68,8.82,6.82,2.06,15.12,3.09,24.88,3.09,11.06,0,21.44-1.41,31.15-4.23,9.71-2.82,18.85-6.59,27.44-11.29l-3.18,29.47c-7.76,4.59-16.79,8.27-27.09,11.03-10.3,2.76-21.68,4.15-34.15,4.15-27.53,0-48.15-6.56-61.85-19.68-13.71-13.12-20.56-32.03-20.56-56.73v-28.23c0-24.35,6.38-43.2,19.15-56.56,12.76-13.35,31.38-20.03,55.85-20.03,16.59,0,30.41,3.03,41.47,9.09,11.06,6.06,19.35,14.62,24.88,25.68ZM1182.89,283.45c.01-2.14.02-4.21.02-6.18,0-9.53-1.53-17.59-4.59-24.18-3.06-6.59-7.65-11.62-13.76-15.09-6.12-3.47-13.83-5.21-23.12-5.21-13.76,0-24,3.91-30.7,11.73-6.71,7.82-10.06,18.97-10.06,33.44v5.47h82.21ZM1290.37,156.4h-35.47v225.52h137.64v-30h-102.17v-195.52ZM1442.31,144.05c-6.82,0-11.91,1.74-15.26,5.21-3.35,3.47-5.03,8.27-5.03,14.38v.71c0,6.12,1.68,10.91,5.03,14.38,3.35,3.47,8.44,5.21,15.26,5.21s11.91-1.7,15.26-5.12c3.35-3.41,5.03-8.23,5.03-14.47v-.71c0-6.12-1.68-10.91-5.03-14.38-3.35-3.47-8.44-5.21-15.26-5.21ZM1425.01,381.92h34.59v-172.58h-34.59v172.58ZM1628.48,213.13c-8.35-5.12-19.29-7.68-32.82-7.68-11.29,0-20.76,1.76-28.41,5.29-7.65,3.53-13.76,8.27-18.35,14.21-4.59,5.94-7.88,12.56-9.88,19.85h-1.77l1.24-35.47h-34.59v172.58h34.59v-117.3c1.66-4.92,3.98-9.41,6.97-13.46,3.82-5.18,8.79-9.29,14.91-12.35,6.12-3.06,13.35-4.59,21.71-4.59,9.06,0,16.21,1.71,21.44,5.12,5.23,3.41,9,8.18,11.29,14.29,2.29,6.12,3.44,13.35,3.44,21.71v106.58h34.59v-110.47c0-14.23-1.97-26.23-5.91-36-3.94-9.76-10.09-17.21-18.44-22.32ZM1844.29,209.34h-40.41l-60.7,67.94h-14.29v-129h-34.41v233.64h34.41v-77.82h14.12l63.35,77.82h40.94l-75.28-92.36,72.28-80.22ZM2071.93,300.75c0,18.12-3.91,31.91-11.74,41.38-7.83,9.47-20.62,14.21-38.38,14.21s-30.56-4.73-38.38-14.21c-7.83-9.47-11.73-23.26-11.73-41.38v-144.35h-35.47v143.29c0,28.35,6.94,49.91,20.82,64.67,13.88,14.77,35.47,22.15,64.76,22.15s51.03-7.38,64.85-22.15c13.82-14.76,20.73-36.32,20.73-64.67v-143.29h-35.47v144.35ZM2155.93,381.92h35.47v-225.52h-35.47v225.52ZM2375.62,156.4v144.35c0,18.12-3.91,31.91-11.74,41.38-7.83,9.47-20.62,14.21-38.38,14.21s-30.56-4.73-38.38-14.21c-7.83-9.47-11.73-23.26-11.73-41.38v-144.35h-35.47v143.29c0,28.35,6.94,49.91,20.82,64.67,13.88,14.77,35.47,22.15,64.76,22.15s51.03-7.38,64.85-22.15c13.82-14.76,20.73-36.32,20.73-64.67v-143.29h-35.47Z"/>
  </g>
</svg>