<?xml version="1.0" encoding="UTF-8"?>
<svg id="Layer_2" data-name="Layer 2" xmlns="http://www.w3.org/2000/svg" viewBox="0 0 479.82 383.82">
  <defs>
    <style>
      .cls-1 {
        fill: #fafafa;
      }

      .cls-2 {
        fill: #4f4f4f;
      }

      .cls-3 {
        fill: #121212;
      }

      .cls-4 {
        opacity: .3;
      }

      .cls-5 {
        fill: #0c0c0c;
      }

      .cls-6 {
        fill: #fff;
      }

      .cls-7 {
        fill: #1d1d51;
      }

      .cls-8 {
        fill: #375a64;
      }

      .cls-9 {
        fill: #ffbf9d;
      }

      .cls-10 {
        fill: #1a2e35;
      }

      .cls-11 {
        fill: #4d4db2;
      }

      .cls-12 {
        fill: #474747;
      }

      .cls-13 {
        fill: #ececec;
      }

      .cls-14 {
        fill: #ff9a6c;
      }

      .cls-15 {
        fill: #545454;
      }

      .cls-16 {
        fill: #353535;
      }

      .cls-17 {
        fill: #e1e1e1;
      }
    </style>
  </defs>
  <g id="Layer_1-2" data-name="Layer 1">
    <g>
      <path class="cls-5" d="M137.27,339.48C63.01,322.78,11.41,254.19,18.14,178.38c2.44-27.45,11.51-45.06,21.81-56.92,25.39-29.24,55.03-19.88,132.13-66.93C226.51,21.32,227.9,6.79,257.27,1.52c69.2-12.43,132.99,55.36,141.64,64.79,50.3,54.87,87.49,154.56,47.7,221.66-60.93,102.74-262.17,61.3-301.19,53.26-2.75-.57-5.46-1.15-8.15-1.75Z"/>
      <g>
        <path class="cls-12" d="M113.88,29.98c-4.04,12.35,1.52,25.57,12.53,31.58-6.33,19.37-12.66,38.74-18.99,58.11l-19.73-6.45-4.92,15.07,7.67,2.51-2.24,6.85,7.12,2.33-1.97,6.03-8.22-2.69-1.7,5.2,13.15,4.3c-.22.66-.43,1.32-.65,1.98-.79,2.43,1.1,5.41,3.55,5.91,2.74.56,5.06-.95,5.91-3.55,7.96-24.36,15.92-48.72,23.88-73.09,2.12-6.5,4.25-13,6.37-19.49,12.44,1.65,24.72-5.74,28.76-18.09,3.99-12.23-1.4-25.31-12.2-31.4-1.5-.85-3.11-1.56-4.81-2.12-6.75-2.21-13.95-1.65-20.28,1.56-6.33,3.21-11.03,8.7-13.24,15.45ZM130.21,20.62c4.71-2.39,10.06-2.8,15.07-1.16,10.36,3.39,16.03,14.56,12.64,24.91-3.38,10.35-14.56,16.03-24.91,12.64h0c-10.36-3.39-16.03-14.56-12.64-24.91,1.64-5.01,5.13-9.09,9.84-11.48Z"/>
        <path class="cls-12" d="M136.29,64.62c-3.47-.22-6.96-1.56-10.05-3.16"/>
        <path class="cls-12" d="M108.02,117.84c-3.54,10.87-8.53,26.09-12.08,36.96"/>
      </g>
      <path class="cls-16" d="M462.63,143.32l-.89-5.74c-1.75-10.36-11.6-17.36-21.96-15.61-10.36,1.75-17.36,11.6-15.61,21.93l.9,5.85c-4.94,1.61-8.1,6.62-7.21,11.9l5.71,33.77c.98,5.81,6.48,9.72,12.29,8.73l35.06-5.93c5.81-.98,9.72-6.48,8.73-12.29l-5.71-33.77c-.93-5.48-5.88-9.27-11.32-8.85ZM455,181.46l-9.17,1.55.31-6.86c-1.75-.72-3.11-2.29-3.45-4.3-.52-3.09,1.56-6.01,4.65-6.54,3.09-.52,6.01,1.56,6.54,4.65.33,1.93-.37,3.8-1.69,5.06,1.08,2.46,2.82,6.44,2.82,6.44ZM458.58,143.96l-29.47,4.99-.88-5.69c-1.37-8.13,4.12-15.86,12.24-17.23,8.13-1.37,15.86,4.12,17.22,12.22l.89,5.72Z"/>
      <g>
        <path class="cls-15" d="M47.36,188.77c-.12.01.04-2.1-.87-5.7-.42-1.81-1.28-3.94-2.62-6.19-1.35-2.25-3.3-4.59-5.94-6.58-2.63-1.97-5.95-3.64-9.78-4.31-3.8-.65-8.09-.52-12.17,1.03-2.05.72-4.04,1.8-5.86,3.16-.94.65-1.76,1.46-2.62,2.23-.78.86-1.6,1.71-2.27,2.68-2.85,3.79-4.45,8.66-4.5,13.68.04,5.02,1.65,9.89,4.5,13.68.67.98,1.49,1.82,2.27,2.69.86.78,1.68,1.59,2.63,2.24,1.82,1.36,3.8,2.44,5.86,3.16,4.08,1.56,8.37,1.68,12.18,1.03,3.83-.67,7.15-2.34,9.78-4.31,2.64-1.99,4.59-4.33,5.94-6.58,1.34-2.26,2.2-4.39,2.62-6.19.91-3.61.75-5.71.87-5.7.01,0,.02.13.02.38,0,.29-.01.66-.02,1.12,0,.49-.03,1.1-.15,1.82-.1.72-.19,1.55-.45,2.45-.39,1.84-1.22,4.02-2.55,6.33-1.34,2.31-3.3,4.72-5.98,6.78-2.67,2.04-6.06,3.78-9.98,4.5-3.9.69-8.3.59-12.51-.99-2.12-.73-4.16-1.83-6.04-3.23-.97-.66-1.82-1.49-2.71-2.29-.8-.89-1.65-1.75-2.34-2.76-2.94-3.9-4.61-8.93-4.65-14.1.05-5.17,1.71-10.2,4.65-14.1.69-1.01,1.54-1.88,2.34-2.76.89-.8,1.74-1.63,2.71-2.29,1.88-1.4,3.92-2.5,6.04-3.23,4.21-1.58,8.61-1.69,12.51-.99,3.92.72,7.31,2.46,9.98,4.5,2.68,2.06,4.64,4.47,5.98,6.78,1.33,2.32,2.16,4.49,2.55,6.33.26.91.35,1.74.45,2.45.12.71.15,1.32.15,1.82,0,.46.02.83.02,1.12,0,.25,0,.38-.02.38Z"/>
        <path class="cls-15" d="M39.96,205.9c.14-.14,5.26,4.75,11.44,10.93,6.18,6.18,11.07,11.3,10.93,11.44-.14.14-5.26-4.75-11.44-10.93-6.18-6.18-11.07-11.3-10.93-11.44Z"/>
      </g>
      <g>
        <g>
          <path class="cls-3" d="M269.63,177.81l-77.84-15.71c-5.38-1.09-8.86-6.33-7.77-11.71l21.74-107.74c1.09-5.38,6.33-8.86,11.7-7.78l49.37,9.96,30.27,47.1-15.76,78.1c-1.09,5.38-6.33,8.86-11.71,7.77Z"/>
          <path class="cls-3" d="M266.83,44.84l-6.12,30.32c-1.01,5,2.23,9.88,7.23,10.89l29.16,5.89-30.27-47.1Z"/>
          <path class="cls-3" d="M260.57,77.9s-1.87,7.28,6.02,11.38c.3.15.6.29.92.41,3.67,1.45,27.83,10.96,27.95,10.39.13-.62,1.64-8.15,1.64-8.15l-29.16-5.88s-7.23-1.72-7.37-8.15Z"/>
        </g>
        <path class="cls-2" d="M244.88,129.28c-2.18,0-4.48-.2-6.93-.65-18.26-3.38-25.16-21.72-25.23-21.9-.09-.26-.06-.54.1-.77.13-.19,13.54-19.41,33.87-15.64,19.7,3.66,24.01,25.84,24.05,26.07.04.22,0,.45-.14.64-.1.14-8.83,12.25-25.72,12.25ZM214.48,106.56c1.11,2.66,7.98,17.49,23.79,20.42,8.52,1.58,16.32.23,23.17-4.01,4.3-2.66,6.85-5.69,7.58-6.62-.63-2.79-5.41-21.16-22.62-24.36-17.72-3.29-30,12.01-31.91,14.57Z"/>
        <path class="cls-2" d="M243.15,122.07c-.67,0-1.35-.06-2.03-.19-2.99-.56-5.57-2.3-7.26-4.91-1.69-2.6-2.29-5.74-1.71-8.84.58-3.11,2.29-5.82,4.8-7.63,2.52-1.82,5.56-2.51,8.55-1.95,2.99.56,5.57,2.3,7.26,4.91,1.69,2.6,2.29,5.74,1.71,8.84h0c-.58,3.11-2.29,5.82-4.8,7.63-1.95,1.41-4.21,2.14-6.52,2.14ZM243.47,100.04c-1.96,0-3.88.62-5.54,1.82-2.16,1.55-3.62,3.89-4.13,6.57-.5,2.68.02,5.39,1.47,7.62,1.44,2.22,3.63,3.7,6.16,4.17,2.53.48,5.11-.12,7.25-1.66,2.16-1.55,3.62-3.89,4.13-6.57h0c.5-2.68-.02-5.39-1.47-7.62-1.44-2.22-3.63-3.7-6.16-4.17-.57-.11-1.14-.16-1.71-.16Z"/>
        <path class="cls-2" d="M218.64,126.31c-.28,0-.56-.14-.72-.4-.25-.4-.13-.92.27-1.16l51.61-32.26c.4-.25.92-.13,1.16.27.25.4.13.92-.27,1.16l-51.61,32.26c-.14.09-.29.13-.45.13Z"/>
      </g>
      <g>
        <path class="cls-7" d="M87.34,383.82v-160.23c0-7.31,5.93-13.24,13.24-13.24h12.66c5.16,0,9.86-3,12.02-7.69l2.72-5.89c2.16-4.69,6.86-7.69,12.02-7.69h60.07c4.68,0,9.02,2.47,11.4,6.5l2.95,4.99c2.38,4.03,6.72,6.5,11.4,6.5h76.58c7.31,0,13.24,5.93,13.24,13.24v163.5H87.34Z"/>
        <path class="cls-13" d="M87.34,380.32l23.42-150.28c1.07-4.98,5.47-8.54,10.57-8.54h196.57c7.76,0,12.99,7.95,9.92,15.08l-42.45,139.99-198.04,3.75Z"/>
        <path class="cls-1" d="M87.34,380.32l29.6-138.28c1.07-4.98,5.47-8.54,10.57-8.54h196.57c7.76,0,12.99,7.95,9.92,15.08l-55.93,129.91-190.73,1.83Z"/>
        <path class="cls-11" d="M87.34,383.82l47.67-134.87c1.99-5.62,7.3-9.38,13.26-9.38h202.65c6.53,0,11.14,6.41,9.05,12.6l-44.34,131.64H87.34Z"/>
        <path class="cls-6" d="M225,336.64c-23.75,0-36.76-20.43-36.89-20.64-.15-.24-.17-.54-.05-.8.12-.26,12.49-26.39,39-26.43h.06c25.63,0,36.29,25.65,36.39,25.91.09.22.08.47-.02.68-.1.22-2.62,5.4-8.63,10.65-5.53,4.83-15.19,10.6-29.77,10.63h-.08ZM189.8,315.49c1.89,2.76,14.18,19.46,35.2,19.46h.08c14.02-.03,23.3-5.54,28.61-10.16,4.92-4.28,7.45-8.62,8.1-9.83-1.35-3.01-11.8-24.51-34.68-24.51h-.05c-23.63.03-35.58,21.74-37.26,25.04Z"/>
        <path class="cls-6" d="M227.49,327.77c-7.94,0-14.4-6.46-14.4-14.4s6.46-14.4,14.4-14.4,14.4,6.46,14.4,14.4-6.46,14.4-14.4,14.4ZM227.49,300.66c-7.01,0-12.71,5.7-12.71,12.71s5.7,12.71,12.71,12.71,12.71-5.7,12.71-12.71-5.7-12.71-12.71-12.71Z"/>
        <path class="cls-6" d="M199.84,338.23c-.23,0-.47-.1-.63-.29-.31-.35-.27-.88.08-1.19l57.76-50.66c.35-.31.88-.27,1.19.08.31.35.27.88-.08,1.19l-57.76,50.66c-.16.14-.36.21-.56.21Z"/>
      </g>
      <g>
        <path class="cls-8" d="M371.08,200.75s5.93,3.79,8.44,9.38c4.68,10.45,30.62,54.44,30.62,54.44,0,0,.19,21.06,0,28.62-.19,7.56-2.76,25.37-2.76,25.37l-29.8-9.06.75-36.66-23.39-36.66,16.14-35.44Z"/>
        <g>
          <path class="cls-8" d="M365.65,229.69c1.06-3.23,7.8-24.22,5.72-28.44-2.02-4.12-18.21-15.36-18.21-15.36l-12.8-10.69-46-8.83-32,2.18-2.86,38.61,42.74.29c11.08,0,13.37,10.15,13.37,11.84l.03,2.33h1.68c6.25,0,11.28,5.12,11.18,11.37l-.03,1.56c2.58,1.17,4.3,2.94,5.3,5.15h17.97c2.85,0,6.87,2.68,8.2,6.34h0c4.9-12.93,6.32-18.16,5.72-16.38,0,.02,0,.02-.01.03Z"/>
          <path class="cls-8" d="M385.01,123.44c-21.78,9.99-47.74,8.14-69.83-1.12-6.59-2.76-13.23-6.44-16.87-12.59-.94-1.59-1.67-3.47-1.21-5.26.46-1.79,2.58-3.2,4.21-2.34l83.7,21.31Z"/>
          <g class="cls-4">
            <path d="M385.01,123.44c-21.78,9.99-47.74,8.14-69.83-1.12-6.59-2.76-13.23-6.44-16.87-12.59-.94-1.59-1.67-3.47-1.21-5.26.46-1.79,2.58-3.2,4.21-2.34l83.7,21.31Z"/>
          </g>
          <path class="cls-8" d="M358.62,155.52s20.08,11.37,20.9,19.77l-19.96,17.13,6.15,4.62-38.58,16.23s9.94-6.05,16.42-23.46c6.48-17.41,4.52-18.44,4.52-18.44l10.55-15.84Z"/>
          <g class="cls-4">
            <path d="M358.62,155.52s19.64,11.01,20.9,19.77l-19.96,17.13,6.15,4.62-38.58,16.23s9.94-6.05,16.42-23.46c6.48-17.41,4.52-18.44,4.52-18.44l10.55-15.84Z"/>
          </g>
          <g>
            <path class="cls-10" d="M305.71,131.52c1.28,1.36,3.73.9,4.95-.52,1.23-1.42,1.5-3.42,1.5-5.29s-.22-3.78.24-5.6c.83-3.3,12.54-11.41,15.94-11.43l7.69-10.61c3.91-2.78,7.7-5.73,12.35-5.68,4.22.05,7.96,2.66,12.07,3.64,2.99.71,6.13.54,9.15,1.15,3.02.6,6.14,2.27,7.11,5.19.57,1.71.36,8.53.94,10.24,1.21,3.53,5.52,3.2,6.27,6.85.61,2.97-1.4,3.05-1.68,6.07-.31,3.28,1.51,6.33,2.84,9.34,1.33,3.02,2.11,6.83.02,9.38-1.83,2.25-5.27,2.68-7.06,4.96-1.31,1.66-1.45,3.92-2.05,5.95-.6,2.03-2.17,4.17-4.27,4l-24.23-1.16c-8.69.7-17.64,1.37-25.95-1.27-8.31-2.64-15.93-9.43-16.79-18.11,1.22.33,2.56.18,3.67-.42-1.85-1.67-2.87-4.21-2.7-6.7Z"/>
            <g>
              <g>
                <path class="cls-10" d="M321.82,144.32c-.05-6.26-.07-12.55.96-18.72,1.03-6.17,3.15-12.27,6.99-17.2.58-.75,5.07-5.59,5.94-5.21.62.27-2.71,5.05-2.56,5.71,1.42,6.31.24,12.99-2.2,18.98-2.44,5.99-5.46,11.12-9.13,16.45"/>
                <path class="cls-9" d="M332.98,201.64c-9.19-3.12-21.29-26.54-21.29-26.54l16.74-53.72c4.24-15.11,16.56-25.23,31.55-20.57l1.36.51c13.68,5.14,21.12,19.93,17.1,33.98-3.75,13.07-8.05,27.47-10.7,34.24-5.47,14.03-20.39,10.92-20.39,10.92-.03-.01-1.13,3.3-2.51,7.5-3.09,9.43-6.54,15.63-10.14,14.14l-1.72-.45Z"/>
                <path class="cls-14" d="M347.34,180.46s-9.08-2.82-16.31-12.32c0,0,.62,11.93,15.16,15.95l1.15-3.63Z"/>
                <path class="cls-10" d="M367.35,143.77c-.36,1.08-1.57,1.66-2.7,1.3-1.13-.36-1.75-1.52-1.39-2.59.36-1.08,1.57-1.66,2.7-1.3,1.13.36,1.76,1.52,1.39,2.6Z"/>
                <path class="cls-10" d="M373.22,140.01c-.35.17-1.45-1.53-3.62-2.34-2.15-.84-4.16-.32-4.3-.68-.07-.16.36-.54,1.24-.78.87-.25,2.21-.3,3.56.22,1.35.51,2.29,1.44,2.76,2.19.47.76.52,1.32.35,1.39Z"/>
                <path class="cls-10" d="M346.93,136.68c-.36,1.08-1.57,1.66-2.7,1.3-1.13-.36-1.75-1.52-1.39-2.59.36-1.08,1.57-1.66,2.7-1.3,1.13.36,1.76,1.52,1.39,2.6Z"/>
                <path class="cls-10" d="M351.68,132.92c-.34.14-1.48-1.43-3.65-2.23-2.16-.83-4.13-.42-4.27-.75-.07-.15.34-.48,1.21-.67.85-.19,2.18-.2,3.53.31,1.35.51,2.32,1.37,2.8,2.07.49.7.56,1.21.39,1.27Z"/>
                <path class="cls-10" d="M353.19,152.47c.04-.13,1.47.15,3.76.69.57.15,1.14.24,1.37-.1.28-.35.27-1.03.25-1.78-.02-1.53-.03-3.14-.05-4.83-.02-6.85.19-12.4.47-12.39.28,0,.51,5.55.53,12.4,0,1.68-.02,3.29-.03,4.82-.03.71.06,1.56-.53,2.28-.3.36-.82.5-1.21.47-.4-.03-.71-.14-.99-.22-2.24-.71-3.6-1.21-3.57-1.34Z"/>
                <path class="cls-10" d="M354.35,127.65c-.43.51-2.49-.58-5.15-1.23-2.64-.7-4.97-.73-5.11-1.38-.06-.31.51-.73,1.55-.99,1.03-.26,2.55-.31,4.14.09,1.59.41,2.89,1.17,3.68,1.9.79.73,1.09,1.37.89,1.61Z"/>
                <path class="cls-10" d="M374.37,136.78c-.57.35-1.87-.72-3.65-1.42-1.76-.76-3.44-.91-3.59-1.56-.06-.31.36-.71,1.2-.93.83-.22,2.07-.19,3.28.31,1.22.5,2.12,1.35,2.55,2.09.44.74.46,1.33.2,1.51Z"/>
                <path class="cls-9" d="M325.65,132.25c-.2-.19-8.61-6.5-11.92,3.25-3.31,9.75,7.16,11.07,7.27,10.79.11-.27,4.65-14.04,4.65-14.04Z"/>
                <path class="cls-14" d="M319.28,141.58s-.21.06-.54.1c-.32.03-.83-.04-1.28-.41-.9-.73-1.21-2.66-.66-4.43.28-.9.75-1.68,1.3-2.27.54-.61,1.17-.95,1.72-.87.56.06.82.49.84.81.04.32-.09.49-.04.53.02.03.26-.09.32-.52.03-.21-.01-.48-.18-.74-.17-.27-.48-.48-.85-.57-.77-.2-1.68.26-2.29.91-.65.64-1.2,1.51-1.51,2.52-.61,1.99-.22,4.17,1.05,5.05.62.41,1.27.4,1.64.27.38-.14.51-.34.48-.37Z"/>
                <path class="cls-10" d="M377.45,117.01c1.87-.35-1.19-7.04-4.49-10.09-5-4.61-13.43-9.21-19.36-9.46-7.14-.3-13.63,1.15-18.86,6.01-5.24,4.86-8.75,11.37-10.8,18.21-.62,2.09-1.12,4.31-.59,6.43.65,2.61,2.82,4.84,1.72,7.78-.4,1.08-.45,2.28.03,3.32,1.16,2.49,3.94,1.43,5.54-.03,3.41-3.12,5.16-7.61,6.8-11.94,1.16-3.07,2.34-6.22,2.45-9.5.06-1.79-.2-3.58-.04-5.36s.83-3.64,2.3-4.65c.24-.16.61-.35,1.06-.54,3.57-1.51,7.69-.96,10.75,1.41,4.86,3.77,13.31,9.78,16.38,8.72,4.42-1.52,5.84-3,5.84-3l1.27,2.69Z"/>
              </g>
              <path class="cls-10" d="M354.55,96.29c5.97-.02,12.05,2.09,16.22,6.36,2.21,2.27,3.89,5.28,3.75,8.44s-2.55,6.32-5.71,6.53l-.23.06c-4.64.03-7.16-1.43-10.85-4.24-3.1-2.37-5.5-5.55-8.61-7.91-3.31-2.5-7.38-3.98-11.52-4.18,5.14-3.02,10.98-5.04,16.95-5.07Z"/>
            </g>
            <path class="cls-8" d="M332.81,100.1c.06.1,1.15-.59,3.09-1.19.97-.29,2.15-.58,3.48-.65,1.32-.08,2.81.02,4.2.59,2.83,1.2,4.83,3.32,5.95,4.98,1.14,1.68,1.52,2.92,1.64,2.88.04-.01,0-.33-.19-.89-.17-.56-.51-1.34-1.04-2.25-1.06-1.79-3.08-4.08-6.1-5.36-1.53-.62-3.12-.7-4.51-.59-1.4.12-2.61.46-3.59.82-1.97.74-2.98,1.6-2.94,1.65Z"/>
            <path class="cls-8" d="M330.73,103.27c-.07,0-.26,1.15-.14,3.04.11,1.88.62,4.48,1.8,7.12,1.18,2.64,2.78,4.76,4.1,6.1,1.32,1.35,2.31,1.98,2.35,1.93.18-.15-3.55-3.1-5.83-8.3-2.35-5.16-2.06-9.91-2.29-9.88Z"/>
            <path class="cls-8" d="M366.08,98.95c-.06.1.91.67,2.29,1.8,1.38,1.12,3.14,2.88,4.62,5.16,1.48,2.28,2.36,4.6,2.83,6.32.47,1.72.6,2.84.71,2.83.07,0,.12-1.14-.24-2.94-.35-1.79-1.2-4.23-2.72-6.59-1.53-2.35-3.41-4.12-4.91-5.17-1.5-1.06-2.55-1.48-2.59-1.42Z"/>
          </g>
          <path class="cls-6" d="M324.65,189.68s8.62,7.4,17.87,4.52l-1.65,3.96c-.54,1.08-1.94,3.52-2.78,4.39-3.52,4.56-7.27,8.08-10.96,10.72-3.23-9.41-4.6-16.7-2.48-23.59Z"/>
          <path class="cls-8" d="M378.67,110.93s-.93-7.52-1.77-14.24c-.54-4.31-4.8-16.21-10.11-17.77-5.32-1.56-7.26.75-9.59.07-2.33-.68-5.26-2.99-9.55-1.9s-9.85,3.42-12.43,7.9c-2.58,4.48-7.18,12.15-8.17,16.73-.99,4.58-1.94,6.47-1.94,6.47,0,0,20.25-9.21,53.55,2.75Z"/>
          <path class="cls-10" d="M378.75,114.74l-.91-10.53s-15.21-5.25-24.64-6.09c-9.42-.84-25.59,1.59-25.59,1.59l-2.14,9.39,53.27,5.64Z"/>
          <path class="cls-10" d="M362,81.91c.07-.02.36,1.07,1.18,2.68.8,1.61,2.21,3.68,4.11,5.66,1.91,1.98,3.87,3.54,5.28,4.68,1.42,1.13,2.29,1.84,2.25,1.89-.02.02-.26-.12-.68-.4-.42-.28-1.02-.7-1.76-1.24-1.46-1.08-3.47-2.61-5.4-4.62-1.94-2.01-3.34-4.16-4.08-5.83-.38-.83-.62-1.54-.75-2.03-.13-.49-.18-.77-.15-.78Z"/>
          <path class="cls-10" d="M341.04,93.6c-.02-.08,1.01-.31,2.55-.97.77-.32,1.66-.79,2.6-1.37.93-.6,1.9-1.33,2.83-2.21.92-.88,1.7-1.82,2.35-2.71.63-.91,1.14-1.77,1.5-2.52.74-1.51,1.02-2.52,1.1-2.5.03,0-.02.27-.14.73-.11.46-.34,1.12-.68,1.9-.33.79-.83,1.68-1.45,2.62-.65.93-1.44,1.89-2.38,2.8-.95.89-1.96,1.64-2.92,2.23-.97.58-1.89,1.02-2.69,1.32-.8.3-1.46.49-1.93.58-.47.09-.73.13-.73.1Z"/>
          <path class="cls-8" d="M403.18,120.49c1.83.6,1.88,3.16.07,3.83-8.26,3.03-25.87,7.76-47.17,3.4-29.71-6.08-55.87-23.08-56.71-23.64-2.15-1.43-.34-2.01.38-2.21s41.89,5.02,56.74,6.4c11.43,1.06,36,8.74,46.68,12.22Z"/>
          <g>
            <path class="cls-8" d="M294.36,166.36s5.63-18.27,7.15-22.12c1.52-3.85,5.09-4.01,5.09-4.01l1.86,3.82c4.63,9.99,22.5,22.28,22.5,22.28,0,0-2.81,2.12-5.77,19.63-2.97,17.52,1.95,27.3,1.95,27.3"/>
            <path class="cls-10" d="M327.13,213.27s-.05-.07-.12-.21c-.07-.14-.17-.36-.29-.65-.24-.58-.57-1.45-.9-2.6-.69-2.29-1.4-5.72-1.65-10.06-.23-4.33.02-9.56,1.09-15.29.5-2.87,1.09-5.88,1.88-8.99.41-1.55.83-3.13,1.39-4.7.28-.79.57-1.58.93-2.35.37-.78.7-1.54,1.38-2.25v.35c-2.36-1.66-4.75-3.49-7.14-5.42-1.92-1.58-3.79-3.16-5.53-4.8-.89-.8-1.72-1.66-2.56-2.47-.8-.86-1.63-1.67-2.37-2.55-1.54-1.7-2.86-3.52-4.01-5.36-1.06-1.91-1.91-3.79-2.79-5.59l.18.11c-1.06.1-2.1.53-2.92,1.17-.84.62-1.45,1.48-1.86,2.39-.78,1.87-1.35,3.75-1.95,5.47-1.13,3.47-2.12,6.51-2.94,9.03-.8,2.49-1.43,4.46-1.88,5.83-.22.65-.38,1.16-.51,1.53-.06.16-.1.29-.14.39-.03.09-.05.13-.06.13,0,0,0-.05.03-.14.03-.11.06-.24.11-.4.11-.38.26-.89.45-1.55.42-1.38,1.02-3.36,1.77-5.86.78-2.52,1.73-5.57,2.85-9.06.58-1.74,1.14-3.6,1.93-5.52.81-1.93,2.73-3.56,5.09-3.8h.12s.06.11.06.11c.89,1.79,1.76,3.7,2.8,5.55,1.14,1.81,2.44,3.6,3.97,5.29.73.87,1.56,1.68,2.36,2.53.84.81,1.66,1.66,2.55,2.46,1.74,1.64,3.6,3.21,5.51,4.78,2.38,1.93,4.77,3.76,7.11,5.41l.2.14-.2.21c-.5.53-.91,1.35-1.25,2.09-.34.76-.64,1.54-.92,2.32-.55,1.56-.97,3.13-1.39,4.67-.79,3.09-1.39,6.09-1.9,8.95-1.09,5.71-1.38,10.9-1.18,15.21.21,4.31.87,7.74,1.51,10.03.31,1.15.62,2.02.83,2.61.11.27.19.49.26.66.06.15.09.22.08.23Z"/>
          </g>
          <path class="cls-8" d="M262.36,168.54s-14.41,3.64-20.56,25.36c-2.9,10.25-3.35,13.18-3.35,13.18l21.05.07,2.86-38.61Z"/>
          <path class="cls-10" d="M369.72,217.72s-.1.41-.36,1.12c-.29.79-.66,1.8-1.11,3.01-.94,2.54-2.23,6.05-3.58,9.96-1.35,3.91-2.51,7.47-3.33,10.05-.4,1.23-.73,2.25-.98,3.06-.24.72-.38,1.11-.41,1.11-.03,0,.06-.42.25-1.15.19-.74.48-1.79.85-3.1.75-2.61,1.86-6.19,3.21-10.1,1.35-3.91,2.69-7.42,3.71-9.93.51-1.26.93-2.27,1.24-2.96.31-.69.49-1.07.52-1.06Z"/>
          <path class="cls-10" d="M325.04,213.27s-.17-.11-.46-.34c-.33-.27-.75-.62-1.28-1.06-.28-.24-.58-.49-.92-.78-.32-.3-.67-.63-1.04-.97-.75-.7-1.61-1.49-2.49-2.43-3.61-3.68-8.25-9.12-12.63-15.65-2.2-3.26-4.15-6.46-5.75-9.47-1.64-2.99-2.89-5.8-3.86-8.19-.93-2.41-1.53-4.41-1.86-5.82-.13-.67-.23-1.21-.31-1.63-.07-.37-.09-.57-.08-.57.01,0,.07.19.17.56.1.41.23.94.39,1.61.38,1.38,1.02,3.36,1.98,5.74,1.01,2.36,2.28,5.14,3.93,8.11,1.61,2.99,3.57,6.17,5.76,9.42,4.36,6.51,8.95,11.96,12.49,15.68.87.95,1.7,1.75,2.43,2.47.36.36.7.69,1.01,1,.32.29.62.56.89.8.5.46.91.83,1.22,1.12.28.26.42.4.41.41Z"/>
          <path class="cls-10" d="M342.04,239.69s-.28-.34-.72-.99c-.44-.65-1.05-1.61-1.8-2.79-1.5-2.37-3.52-5.68-5.68-9.38-2.15-3.7-4.03-7.09-5.35-9.57-.66-1.24-1.19-2.24-1.54-2.95-.35-.7-.53-1.1-.51-1.11.03-.01.26.35.66,1.03.43.75.99,1.72,1.66,2.88,1.44,2.5,3.35,5.82,5.46,9.5,2.15,3.65,4.1,6.95,5.56,9.44.68,1.15,1.24,2.12,1.68,2.86.39.68.6,1.06.57,1.08Z"/>
          <g>
            <path class="cls-10" d="M341.81,220.63c-.79-1.42-2.75-2.04-4.21-1.34l-.71.46c-1.23,1.05-1.46,3.09-.49,4.39.97,1.3,2.99,1.66,4.35.78s1.85-2.87,1.06-4.29Z"/>
            <circle class="cls-8" cx="338.04" cy="222.32" r=".58"/>
            <path class="cls-8" d="M340.37,222.32c0,.32-.26.58-.58.58s-.58-.26-.58-.58.26-.58.58-.58.58.26.58.58Z"/>
          </g>
          <g>
            <path class="cls-10" d="M348.66,233.26c-.79-1.42-2.75-2.04-4.21-1.34l-.71.46c-1.23,1.05-1.46,3.09-.49,4.39.97,1.3,2.99,1.66,4.35.78,1.36-.88,1.85-2.87,1.06-4.29Z"/>
            <circle class="cls-8" cx="344.88" cy="234.95" r=".58"/>
            <circle class="cls-8" cx="346.63" cy="234.95" r=".58"/>
          </g>
          <path class="cls-10" d="M276.81,192.68s-.18-.28-.44-.81c-.3-.62-.66-1.36-1.08-2.24-.92-1.89-2.25-4.47-3.88-7.23-1.63-2.76-3.25-5.16-4.46-6.88-.57-.79-1.05-1.47-1.44-2.03-.34-.48-.52-.75-.5-.77s.25.22.63.67c.39.45.92,1.11,1.56,1.95,1.28,1.67,2.95,4.07,4.59,6.84,1.64,2.77,2.93,5.39,3.78,7.32.43.96.75,1.75.96,2.31.21.55.31.86.28.87Z"/>
          <path class="cls-10" d="M275.98,207.51c-.12-.01,0-2.46.26-5.46.26-3.01.58-5.43.7-5.42.12.01,0,2.45-.26,5.46-.26,3-.58,5.43-.7,5.42Z"/>
          <path class="cls-10" d="M299.71,180.73c0,.12-6.35.46-14.19.75-7.85.29-14.21.43-14.21.31,0-.12,6.35-.46,14.19-.75,7.84-.29,14.21-.43,14.21-.31Z"/>
          <path class="cls-10" d="M296.51,173.73s-.41.02-1.15-.01c-.74-.04-1.81-.09-3.13-.12-2.64-.08-6.3-.05-10.32.34-4.02.4-7.61,1.08-10.19,1.66-1.29.29-2.33.54-3.05.73-.72.18-1.12.26-1.13.24,0-.03.38-.17,1.08-.4.7-.23,1.74-.53,3.02-.87,2.57-.67,6.18-1.4,10.22-1.8,4.04-.39,7.72-.37,10.38-.22,1.33.08,2.4.17,3.13.26.74.09,1.14.15,1.14.18Z"/>
          <path class="cls-10" d="M368.83,211.38c-.05.04-.62-.54-1.57-1.43-.95-.89-2.3-2.08-3.91-3.25-1.6-1.17-3.15-2.1-4.29-2.73-1.14-.63-1.86-1-1.84-1.06.02-.05.79.21,1.98.78,1.19.57,2.78,1.47,4.4,2.65,1.62,1.19,2.96,2.43,3.87,3.38.9.96,1.39,1.61,1.35,1.65Z"/>
          <path class="cls-10" d="M371.67,208.91c-.13.06-.97-2.67-3.17-5.33-2.16-2.68-4.67-4.05-4.59-4.17.02-.04.68.23,1.63.87.95.63,2.18,1.66,3.29,3.02,1.11,1.36,1.87,2.77,2.3,3.83.43,1.06.57,1.76.53,1.77Z"/>
        </g>
        <g>
          <g>
            <g>
              <path class="cls-8" d="M292.86,320.47c-.04,11.19.04,30.77.09,42,.02,4.74,3.87,8.56,8.61,8.56h57.24c4.75,0,8.61-3.85,8.61-8.61v-42.65c0-4.8-3.92-8.67-8.72-8.61l-57.33.73c-4.7.06-8.48,3.87-8.5,8.57Z"/>
              <g>
                <circle class="cls-10" cx="331.47" cy="336.31" r="7.47" transform="translate(-103.06 151.48) rotate(-22.37)"/>
                <path class="cls-10" d="M327.57,340.78h7.81v14.25c0,1.66-1.35,3.02-3.02,3.02h-1.78c-1.66,0-3.02-1.35-3.02-3.02v-14.25h0Z"/>
              </g>
              <g>
                <path class="cls-17" d="M312.54,311.79h-7.86v-21.94c0-14.03,11.41-25.44,25.44-25.44s25.44,11.41,25.44,25.44v10.4h-7.86v-10.4c0-9.7-7.89-17.59-17.59-17.59s-17.59,7.89-17.59,17.59v21.94Z"/>
                <path class="cls-10" d="M312.54,311.79s0-.16-.01-.45c0-.31,0-.73-.02-1.29,0-1.14-.02-2.81-.04-4.95-.01-2.15-.03-4.79-.04-7.86,0-1.54-.01-3.18-.02-4.93.02-1.73-.11-3.62.27-5.56.66-3.87,2.8-7.97,6.51-10.87,1.84-1.45,4.05-2.58,6.48-3.21,2.43-.63,5.07-.76,7.7-.29,2.63.45,5.2,1.6,7.45,3.29,1.14.82,2.14,1.85,3.08,2.94.87,1.14,1.72,2.34,2.31,3.69.35.65.56,1.36.83,2.05.22.71.41,1.43.56,2.17.27,1.47.35,3.01.33,4.51,0,3.02,0,6.1,0,9.22l-.22-.22c2.48,0,5.15,0,7.86,0l-.22.22c0-1.97,0-4,0-6.06-.02-2.06.06-4.17-.1-6.25-.22-2.8-.9-5.54-1.97-8.07-1.09-2.54-2.62-4.83-4.41-6.84-3.57-4.06-8.4-6.7-13.35-7.82-.62-.16-1.25-.21-1.87-.32l-.93-.14-.94-.05c-.62-.02-1.25-.09-1.87-.07-.62.03-1.24.06-1.85.09-2.44.25-4.84.7-7.02,1.61-.28.11-.56.19-.83.31l-.79.38c-.52.26-1.06.48-1.56.78-.99.6-1.99,1.17-2.87,1.88-.94.64-1.73,1.43-2.55,2.17-.4.38-.75.81-1.12,1.2-.37.4-.74.8-1.05,1.24-2.64,3.4-4.34,7.23-4.98,10.99-.35,1.88-.44,3.72-.45,5.5,0,1.78,0,3.5-.01,5.14-.02,6.55-.04,11.92-.06,15.87l-.08-.08c2.54.02,4.49.04,5.83.05.65,0,1.15.01,1.51.02.34,0,.52.02.52.02,0,0-.16.01-.49.02-.35,0-.84.01-1.49.02-1.34.01-3.31.03-5.87.05h-.08s0-.08,0-.08c-.01-3.94-.03-9.31-.06-15.87,0-1.64,0-3.35-.01-5.14,0-1.78.08-3.66.43-5.56.64-3.81,2.35-7.71,5.02-11.16.31-.45.69-.85,1.06-1.26.38-.4.73-.84,1.14-1.22.83-.75,1.64-1.55,2.59-2.21.89-.73,1.9-1.31,2.91-1.92.5-.31,1.05-.53,1.58-.8l.8-.39c.27-.12.56-.21.84-.32,2.22-.93,4.66-1.4,7.13-1.65.62-.03,1.25-.06,1.88-.1.63-.01,1.26.05,1.9.07l.95.05.95.14c.63.11,1.28.16,1.9.32,5.04,1.13,9.95,3.81,13.58,7.94,1.82,2.04,3.38,4.38,4.49,6.96,1.1,2.58,1.78,5.37,2.01,8.21.16,2.13.08,4.22.1,6.28,0,2.06,0,4.09,0,6.06v.22h-.22c-2.7,0-5.37,0-7.86,0h-.22s0-.22,0-.22c0-3.13,0-6.2,0-9.22.02-1.52-.05-2.98-.31-4.43-.14-.72-.33-1.42-.54-2.12-.26-.68-.46-1.37-.81-2.01-.57-1.32-1.4-2.49-2.25-3.61-.92-1.06-1.89-2.07-3-2.88-2.19-1.65-4.7-2.78-7.28-3.23-2.57-.47-5.16-.35-7.54.26-2.38.61-4.55,1.72-6.36,3.13-3.65,2.83-5.77,6.85-6.44,10.66-.38,1.9-.27,3.77-.3,5.53,0,1.76-.01,3.42-.02,4.96-.02,3.08-.03,5.72-.04,7.88-.02,2.13-.03,3.79-.04,4.92,0,.55-.01.97-.02,1.27,0,.28-.01.42-.01.42Z"/>
              </g>
            </g>
            <path class="cls-10" d="M376.06,293.39c.06.1-2.49,1.71-5.69,3.59-3.2,1.88-5.85,3.32-5.91,3.21-.06-.1,2.48-1.71,5.69-3.59,3.2-1.88,5.85-3.32,5.91-3.21Z"/>
            <path class="cls-10" d="M367.21,288.87c.11.05-.7,2.13-1.81,4.65-1.11,2.52-2.1,4.52-2.21,4.47-.11-.05.7-2.13,1.81-4.65,1.11-2.52,2.1-4.52,2.21-4.47Z"/>
            <path class="cls-10" d="M372.69,306.58c-.06.11-1.63-.6-3.51-1.57-1.88-.98-3.36-1.86-3.31-1.96.06-.11,1.63.6,3.51,1.58,1.88.98,3.36,1.86,3.31,1.96Z"/>
          </g>
          <g>
            <path class="cls-9" d="M390.88,301.15c2.42-2.27,6.95.26,9.03,2.85l-.74-1.03c3.03,3.96,4.08,7.87,2.79,12.69-1.05,3.9-2.32,8.13-3.3,9.73l-4.46,7.27c-.98,1.59-2.63,2.71-4.49,2.85-.46.04-.85,0-1.09-.18l-3.1-.69s-3.5,1.97-5.81,2.93c-2.2.91-7.26.29-7.26.29l-10.39,9.36c-.97.88-2.39,1.16-3.57.59-.66-.32-1.12-.86-.84-1.79.71-2.33,8.8-10.95,8.8-10.95l1.49-2.18,7.03-10.11h0c-.2-.98-1.4-1.36-2.14-.69l-2.21,2.03-3.01,5.53s-3.08,2.1-5.05.48l3.21-9.41,6.98-9.1s12.51-5.2,15.44-7.94c.83-.78,1.76-1.65,2.67-2.51Z"/>
            <path class="cls-14" d="M380.73,330.76c.11.08-1.37,2.1-3.71,4.1-2.33,2-4.56,3.15-4.62,3.03-.08-.13,2-1.45,4.28-3.42,2.3-1.96,3.92-3.8,4.04-3.7Z"/>
            <path class="cls-14" d="M388,332.54c.13.12-.87,1.12-2.28,2.03-1.4.93-2.63,1.53-2.7,1.41-.08-.12,1.02-.93,2.41-1.84,1.4-.9,2.48-1.67,2.57-1.6Z"/>
            <path class="cls-14" d="M364.63,337.03c-.06-.05.71-.98,1.89-2.53,1.19-1.54,2.79-3.7,4.48-6.14.85-1.22,1.64-2.39,2.34-3.47.71-1.07,1.25-2.08,1.49-2.99.5-1.87-.2-3.02-.11-3.03.02-.02.23.23.4.76.17.53.27,1.37.06,2.35-.21.99-.75,2.07-1.44,3.16-.69,1.1-1.47,2.28-2.32,3.51-1.7,2.45-3.35,4.59-4.62,6.08-1.26,1.5-2.13,2.34-2.17,2.3Z"/>
            <path class="cls-14" d="M374.31,320.95c.04.07-.67.44-1.63,1.26-.96.8-2.15,2.11-2.94,3.85-.38.86-.68,1.79-1.2,2.51-.5.76-1.21,1.21-1.81,1.47-1.22.51-2.03.54-2.04.49-.03-.09.77-.26,1.88-.82.55-.29,1.15-.72,1.57-1.4.46-.68.71-1.54,1.12-2.46.83-1.83,2.13-3.17,3.18-3.92,1.06-.77,1.83-1.02,1.85-.97Z"/>
          </g>
        </g>
        <path class="cls-10" d="M406.62,317.72s-.07-.13-.15-.4c-.1-.32-.22-.7-.36-1.17-.31-1.02-.74-2.5-1.39-4.28-.67-1.77-1.56-3.87-3.03-5.89-1.46-1.99-3.54-3.95-6.25-4.92-2.7-.98-5.57-.64-7.89.19-2.35.83-4.23,2.15-5.68,3.36-1.45,1.22-2.51,2.34-3.23,3.12-.33.36-.61.66-.83.9-.19.21-.3.31-.31.3-.01,0,.07-.13.24-.36.17-.22.43-.55.77-.96.69-.81,1.72-1.98,3.16-3.24,1.44-1.25,3.33-2.63,5.74-3.5,2.37-.87,5.35-1.24,8.18-.22,2.82,1,4.95,3.04,6.43,5.09,1.49,2.08,2.36,4.22,3,6.02.62,1.81,1,3.31,1.26,4.34.11.48.21.87.28,1.2.06.27.08.42.07.42Z"/>
        <path class="cls-10" d="M398.91,263.04c0,.09-1.34,0-3.46.23-2.12.24-5.03.88-7.98,2.28-2.96,1.37-5.33,3.19-6.83,4.7-1.52,1.51-2.23,2.64-2.3,2.59-.03-.02.14-.3.47-.81.16-.26.38-.55.65-.89.26-.34.58-.72.96-1.11,1.46-1.6,3.86-3.48,6.87-4.88,3-1.42,5.99-2.02,8.14-2.19,1.08-.08,1.96-.09,2.56-.03.6.04.93.08.93.11Z"/>
        <path class="cls-10" d="M369.72,163.01s1.32.8,3.38,2.66c1.03.93,2.21,2.15,3.4,3.72,1.16,1.58,2.41,3.47,3.18,5.87l.03.1-.08.07c-5.37,4.63-12.3,10.6-19.93,17.17v-.34c.91.69,1.9,1.43,2.89,2.18,1.11.83,2.21,1.66,3.24,2.44l.31.23-.35.15c-10.82,4.52-20.46,8.55-27.44,11.47-3.46,1.42-6.25,2.57-8.21,3.38-.95.38-1.69.68-2.23.89-.24.09-.43.16-.58.22-.13.05-.2.07-.2.06,0,0,.06-.04.19-.1.15-.07.34-.15.57-.26.53-.23,1.27-.56,2.2-.97,1.95-.84,4.72-2.03,8.16-3.51,6.96-2.95,16.58-7.02,27.38-11.6l-.05.38c-1.03-.78-2.13-1.6-3.24-2.43-.99-.75-1.98-1.49-2.9-2.18l-.22-.16.21-.18c7.65-6.54,14.61-12.49,20-17.09l-.05.17c-.72-2.31-1.94-4.22-3.07-5.79-1.16-1.57-2.32-2.8-3.32-3.74-.49-.49-.96-.88-1.36-1.23-.39-.36-.75-.63-1.04-.86-.27-.21-.48-.39-.65-.52-.14-.12-.22-.18-.21-.19Z"/>
        <path class="cls-10" d="M352.02,161.01c-.29.23-1.56-.89-3.19-2.12-1.62-1.24-3.05-2.16-2.91-2.5.13-.33,1.93.1,3.7,1.45,1.78,1.34,2.68,2.96,2.4,3.17Z"/>
        <g class="cls-4">
          <path d="M398.57,259.82c-2.43-1.61-5.71-.91-8.35.32-5.41,2.53-9.64,7.17-11.9,12.7l.85-1.38c4.36-5.3,11.23-8.05,18.09-8.27.99-.03,2.11-.79,2.27-1.77.11-.65-.41-1.24-.97-1.61Z"/>
        </g>
      </g>
    </g>
  </g>
</svg>