<?xml version="1.0" encoding="UTF-8"?>
<svg xmlns="http://www.w3.org/2000/svg" viewBox="0 0 463.02 432.84">
  <defs>
    <style>
      .cls-1 {
        opacity: .14;
      }

      .cls-1, .cls-2 {
        fill: #141516;
      }

      .cls-1, .cls-3, .cls-4 {
        mix-blend-mode: multiply;
      }

      .cls-5 {
        fill: #efa37d;
      }

      .cls-6 {
        fill: #ff7a00;
      }

      .cls-7 {
        fill: #121212;
      }

      .cls-8 {
        fill: #0c0c0c;
      }

      .cls-9 {
        fill: #fff;
      }

      .cls-10 {
        fill: #1e1e1e;
      }

      .cls-11 {
        fill: #f4b545;
      }

      .cls-12 {
        fill: #244272;
      }

      .cls-13 {
        fill: #fdc8aa;
      }

      .cls-14 {
        fill: #e59d29;
      }

      .cls-15 {
        isolation: isolate;
      }

      .cls-16 {
        fill: #595959;
      }

      .cls-3 {
        opacity: .3;
      }

      .cls-3, .cls-4 {
        fill: #2a65ba;
      }

      .cls-17 {
        fill: #c1c1c1;
      }

      .cls-18 {
        fill: #1f3d68;
      }

      .cls-4 {
        opacity: .15;
      }

      .cls-19 {
        fill: #122d5b;
        opacity: .75;
      }

      .cls-20 {
        fill: #1a3863;
      }
    </style>
  </defs>
  <g class="cls-15">
    <g id="Layer_2" data-name="Layer 2">
      <g id="Layer_1-2" data-name="Layer 1">
        <g>
          <path class="cls-8" d="M381.04,133.47c54.9,42.22,76.11,119.64,46.6,183.32-10.89,24.76-32.63,50.14-56,57.37-21.74,7.36-42.41,2.38-65.69,1.47-33.83-1.92-67.29.11-100.73,6.14-8.62,1.56-17.94,3.54-26.48,5.51-17.9,3.89-26.8,7.24-43.69,3.97-64.3-14.49-99.24-88.8-109.85-129.95C7.54,190.84,14.06,95.29,79.1,50.07c91.75-59.26,232.85,31.18,301.8,83.29l.13.11Z"/>
          <g>
            <g>
              <path class="cls-4" d="M418.54,171l-97.39,187.82c-6.48,1.71-13.14,2.98-19.95,3.77l100.54-223.62c6.89,9.84,12.56,20.59,16.8,32.03Z"/>
              <path class="cls-10" d="M382.82,42.73v109.09c0,5.02-4.22,9.09-9.44,9.09h-170.28c-1.37,0-2.72.28-3.96.84l-72.2,32.13c-3.08,1.37-6.59-.79-6.59-4.06v-19.82c0-5.02-4.23-9.09-9.44-9.09h-26.44c-1.16,0-2.27-.2-3.3-.57-1.05-.38-2.01-.93-2.85-1.63-2.02-1.67-3.29-4.14-3.29-6.89V42.73c0-5.02,4.23-9.09,9.44-9.09h288.92c5.22,0,9.44,4.07,9.44,9.09Z"/>
              <path class="cls-6" d="M125.77,73.13l3.39,10.43c.37,1.13,1.42,1.9,2.61,1.9h10.97c2.66,0,3.77,3.4,1.61,4.97l-8.87,6.45c-.96.7-1.36,1.94-1,3.07l3.39,10.43c.82,2.53-2.07,4.63-4.22,3.07l-8.87-6.45c-.96-.7-2.27-.7-3.23,0l-8.87,6.45c-2.15,1.56-5.05-.54-4.22-3.07l3.39-10.43c.37-1.13-.04-2.37-1-3.07l-8.87-6.45c-2.15-1.56-1.05-4.97,1.61-4.97h10.97c1.19,0,2.24-.77,2.61-1.9l3.39-10.43c.82-2.53,4.4-2.53,5.22,0Z"/>
              <path class="cls-6" d="M178.65,73.13l3.39,10.43c.37,1.13,1.42,1.9,2.61,1.9h10.97c2.66,0,3.77,3.4,1.61,4.97l-8.87,6.45c-.96.7-1.36,1.94-1,3.07l3.39,10.43c.82,2.53-2.07,4.63-4.22,3.07l-8.87-6.45c-.96-.7-2.27-.7-3.23,0l-8.87,6.45c-2.15,1.56-5.05-.54-4.22-3.07l3.39-10.43c.37-1.13-.04-2.37-1-3.07l-8.87-6.45c-2.15-1.56-1.05-4.97,1.61-4.97h10.97c1.19,0,2.24-.77,2.61-1.9l3.39-10.43c.82-2.53,4.4-2.53,5.22,0Z"/>
              <path class="cls-6" d="M231.53,73.13l3.39,10.43c.37,1.13,1.42,1.9,2.61,1.9h10.97c2.66,0,3.77,3.4,1.61,4.97l-8.87,6.45c-.96.7-1.36,1.94-1,3.07l3.39,10.43c.82,2.53-2.07,4.63-4.22,3.07l-8.87-6.45c-.96-.7-2.27-.7-3.23,0l-8.87,6.45c-2.15,1.56-5.05-.54-4.22-3.07l3.39-10.43c.37-1.13-.04-2.37-1-3.07l-8.87-6.45c-2.15-1.56-1.05-4.97,1.61-4.97h10.97c1.19,0,2.24-.77,2.61-1.9l3.39-10.43c.82-2.53,4.4-2.53,5.22,0Z"/>
              <path class="cls-6" d="M284.41,73.13l3.39,10.43c.37,1.13,1.42,1.9,2.61,1.9h10.97c2.66,0,3.77,3.4,1.61,4.97l-8.87,6.45c-.96.7-1.36,1.94-1,3.07l3.39,10.43c.82,2.53-2.07,4.63-4.22,3.07l-8.87-6.45c-.96-.7-2.27-.7-3.23,0l-8.87,6.45c-2.15,1.56-5.05-.54-4.22-3.07l3.39-10.43c.37-1.13-.04-2.37-1-3.07l-8.87-6.45c-2.15-1.56-1.05-4.97,1.61-4.97h10.97c1.19,0,2.24-.77,2.61-1.9l3.39-10.43c.82-2.53,4.4-2.53,5.22,0Z"/>
              <path class="cls-7" d="M337.29,73.13l3.39,10.43c.37,1.13,1.42,1.9,2.61,1.9h10.97c2.66,0,3.77,3.4,1.61,4.97l-8.87,6.45c-.96.7-1.36,1.94-1,3.07l3.39,10.43c.82,2.53-2.07,4.63-4.22,3.07l-8.87-6.45c-.96-.7-2.27-.7-3.23,0l-8.87,6.45c-2.15,1.56-5.05-.54-4.22-3.07l3.39-10.43c.37-1.13-.04-2.37-1-3.07l-8.87-6.45c-2.15-1.56-1.05-4.97,1.61-4.97h10.97c1.19,0,2.24-.77,2.61-1.9l3.39-10.43c.82-2.53,4.4-2.53,5.22,0Z"/>
              <path class="cls-6" d="M414.09,263.62c-.64,0-1.23-.42-1.4-1.07-.21-.78.24-1.58,1.02-1.79,13.48-3.72,26.3-10.4,37.07-19.32,2.65-2.19,5.6-4.88,7.46-8.17,1.88-3.33,2.37-7.07,1.3-9.99-1.39-3.8-5.53-6.62-10.29-7-3.98-.32-8.44.89-13.27,3.59-13.21,7.39-22.33,21.93-23.25,37.04-.05.8-.74,1.41-1.54,1.37-.8-.05-1.42-.74-1.37-1.54.48-7.93,3.05-15.81,7.44-22.8s10.37-12.73,17.3-16.61c5.34-2.99,10.36-4.32,14.92-3.95,5.88.47,11.02,4.05,12.8,8.9,1.38,3.77.84,8.3-1.49,12.43-2.09,3.7-5.29,6.62-8.14,8.98-11.09,9.18-24.28,16.06-38.16,19.89-.13.04-.26.05-.39.05Z"/>
              <path class="cls-6" d="M402.58,257.55c-.5,0-.98-.25-1.25-.71-4.18-6.96-8.5-14.15-10.93-22.16-2.76-9.08-2.46-17.92.85-24.89,1.91-4.03,5.74-8.3,10.77-8.18,3.15.07,6.28,1.96,8.37,5.03,1.84,2.71,2.66,5.88,3.3,8.63,2.74,11.97,3.5,24.23,2.25,36.44-.08.8-.8,1.38-1.6,1.3-.8-.08-1.38-.8-1.3-1.6,1.22-11.9.48-23.84-2.19-35.49-.57-2.5-1.31-5.36-2.87-7.65-1.53-2.27-3.84-3.7-6.02-3.76-.04,0-.09,0-.13,0-3.57,0-6.44,3.35-7.93,6.51-2.99,6.32-3.24,14.42-.69,22.8,2.33,7.66,6.55,14.7,10.64,21.5.41.69.19,1.59-.5,2-.23.14-.49.21-.75.21Z"/>
              <path class="cls-3" d="M420.78,263.91c-12.37,39.04-41.07,70.83-78.08,87.32-11.27-11.16-19.44-25.48-22.31-41.08-6.53-35.57,17.01-64.33,52.58-64.24,17.28.05,34.22,6.89,47.81,18Z"/>
              <g>
                <path class="cls-16" d="M124.98,209.61c-11,0-19.95-8.88-19.95-19.78v-13.61h-20.57c-13.65,0-24.75-10.95-24.75-24.4v-42.94c0-.81.65-1.46,1.46-1.46s1.46.65,1.46,1.46v42.94c0,11.85,9.79,21.48,21.83,21.48h22.03c.81,0,1.46.65,1.46,1.46v15.07c0,9.3,7.64,16.87,17.04,16.87,2.42,0,4.77-.5,6.99-1.49l71.4-31.78c.19-.08.39-.13.59-.13h169.42c12.04,0,21.83-9.64,21.83-21.48V42.73c0-11.85-9.8-21.48-21.83-21.48-.81,0-1.46-.65-1.46-1.46s.65-1.46,1.46-1.46c13.65,0,24.75,10.95,24.75,24.4v109.09c0,13.45-11.1,24.4-24.75,24.4h-169.11l-71.11,31.65c-2.59,1.15-5.34,1.74-8.17,1.74Z"/>
                <path class="cls-16" d="M357.01,21.25h-26.46c-.81,0-1.46-.65-1.46-1.46s.65-1.46,1.46-1.46h26.46c.81,0,1.46.65,1.46,1.46s-.65,1.46-1.46,1.46Z"/>
                <path class="cls-16" d="M61.16,54.59c-.81,0-1.46-.65-1.46-1.46v-10.4c0-13.45,11.1-24.4,24.75-24.4h232c.81,0,1.46.65,1.46,1.46s-.65,1.46-1.46,1.46H84.46c-12.04,0-21.83,9.64-21.83,21.48v10.4c0,.81-.65,1.46-1.46,1.46Z"/>
                <path class="cls-16" d="M61.16,91.15c-.81,0-1.46-.65-1.46-1.46v-22.19c0-.81.65-1.46,1.46-1.46s1.46.65,1.46,1.46v22.19c0,.81-.65,1.46-1.46,1.46Z"/>
              </g>
              <path class="cls-16" d="M311.41,141.32h-140.45c-5.4,0-9.77,4.38-9.77,9.77v75.91c0,5.4,4.38,9.77,9.77,9.77h79.25c.41,0,.82.09,1.2.25l45.59,20.17c1.97.87,4.18-.57,4.18-2.72v-14.73c0-1.64,1.33-2.97,2.97-2.97h7.25c5.4,0,9.77-4.38,9.77-9.77v-75.91c0-5.4-4.38-9.77-9.77-9.77Z"/>
              <g>
                <rect class="cls-7" x="178.42" y="162.1" width="47.25" height="5.18" rx="2.4" ry="2.4"/>
                <rect class="cls-7" x="230.72" y="162.1" width="24.96" height="5.18" rx="2.4" ry="2.4"/>
                <rect class="cls-7" x="259.47" y="162.1" width="45.94" height="5.18" rx="2.4" ry="2.4"/>
                <rect class="cls-7" x="178.42" y="177.94" width="30.12" height="5.18" rx="2.4" ry="2.4"/>
                <rect class="cls-7" x="214.61" y="177.94" width="51.38" height="5.18" rx="2.4" ry="2.4"/>
                <rect class="cls-7" x="270.97" y="177.94" width="34.44" height="5.18" rx="2.4" ry="2.4"/>
                <rect class="cls-7" x="178.42" y="193.78" width="55.16" height="5.18" rx="2.4" ry="2.4"/>
                <rect class="cls-7" x="239.66" y="193.78" width="65.75" height="5.18" rx="2.4" ry="2.4"/>
                <rect class="cls-7" x="178.42" y="209.62" width="27.58" height="5.18" rx="2.4" ry="2.4"/>
                <rect class="cls-7" x="211.48" y="209.62" width="93.93" height="5.18" rx="2.4" ry="2.4"/>
              </g>
              <g>
                <rect class="cls-2" x="322.14" y="27.5" width="60.97" height="343.5" transform="translate(590.55 527.02) rotate(-155.44)"/>
                <rect class="cls-9" x="396.91" y="27.43" width="60.97" height="16.34" transform="translate(801.34 245.61) rotate(-155.44)"/>
                <path class="cls-2" d="M438.2,2.4l7.23,3.3c13.32,6.09,19.18,21.82,13.1,35.14h0s-55.46-25.34-55.46-25.34h0c6.09-13.32,21.82-19.18,35.14-13.1Z"/>
                <path class="cls-17" d="M259.27,411.73c-2.42,2.12-6.2.39-6.18-2.82l.09-13.41,16.18,7.39-10.08,8.84Z"/>
                <polygon class="cls-9" points="253.52 342.79 253.18 395.5 269.35 402.89 308.97 368.13 253.52 342.79"/>
                <rect class="cls-1" x="342.36" y="31.9" width="39.79" height="343.5" transform="translate(607.11 539.43) rotate(-155.44)"/>
                <rect class="cls-1" x="361.36" y="36.03" width="19.9" height="343.5" transform="translate(622.67 551.08) rotate(-155.44)"/>
                <polygon class="cls-1" points="272.78 351.6 260.25 398.73 269.35 402.89 308.97 368.13 272.78 351.6"/>
                <polygon class="cls-1" points="262.42 399.72 269.35 402.89 308.97 368.13 290.88 359.86 262.42 399.72"/>
                <rect class="cls-1" x="417.13" y="31.83" width="39.79" height="16.34" transform="translate(817.9 258.02) rotate(-155.44)"/>
                <rect class="cls-1" x="436.13" y="35.97" width="19.9" height="16.34" transform="translate(833.46 269.67) rotate(-155.44)"/>
              </g>
              <path class="cls-6" d="M237.08,412.85c-.77,0-1.41-.6-1.45-1.38-.04-.8.57-1.49,1.38-1.53,2.83-.15,5.57-.69,8.15-1.59.76-.27,1.59.13,1.86.89.27.76-.13,1.59-.89,1.86-2.84,1-5.86,1.59-8.96,1.75-.03,0-.05,0-.08,0ZM228.39,412.17c-.1,0-.2-.01-.3-.03-2.99-.63-5.88-1.64-8.59-3.01-.72-.36-1.01-1.24-.65-1.96.36-.72,1.24-1.01,1.96-.65,2.48,1.25,5.14,2.18,7.88,2.76.79.17,1.29.94,1.12,1.73-.14.69-.75,1.16-1.42,1.16ZM212.96,404.35c-.35,0-.7-.13-.98-.38-.81-.74-1.59-1.53-2.31-2.35-1.27-1.43-2.44-3.01-3.49-4.68-.43-.68-.22-1.58.46-2.01.68-.43,1.58-.22,2.01.46.96,1.54,2.04,2.98,3.2,4.29.65.74,1.36,1.45,2.1,2.13.59.54.64,1.47.09,2.06-.29.31-.68.47-1.08.47ZM203.66,389.75c-.6,0-1.16-.37-1.38-.97-.95-2.69-1.7-5.62-2.23-8.7-.14-.79.4-1.55,1.19-1.68.79-.14,1.55.4,1.68,1.19.5,2.92,1.21,5.69,2.11,8.23.27.76-.13,1.59-.89,1.86-.16.06-.32.08-.48.08ZM200.58,372.59c-.78,0-1.42-.61-1.46-1.39-.04-.98-.07-1.99-.08-3,0-.25,0-.5,0-.74,0-1.62.04-3.3.12-5.13.03-.8.71-1.43,1.52-1.39.8.03,1.43.71,1.39,1.52-.08,1.78-.11,3.42-.11,5,0,.24,0,.48,0,.72,0,.97.03,1.95.07,2.89.04.8-.59,1.49-1.39,1.52-.02,0-.04,0-.06,0ZM222.12,357.11s-.01,0-.02,0c-2.94-.04-5.92-.19-8.84-.44-.8-.07-1.4-.78-1.33-1.58.07-.8.78-1.39,1.58-1.33,2.85.25,5.76.39,8.63.43.81.01,1.45.67,1.44,1.48-.01.8-.66,1.44-1.46,1.44ZM230.86,356.92c-.77,0-1.41-.6-1.45-1.37-.05-.8.57-1.49,1.37-1.54,2.86-.17,5.76-.44,8.6-.81.8-.1,1.53.46,1.63,1.26.1.8-.46,1.53-1.26,1.63-2.91.38-5.88.66-8.81.83-.03,0-.06,0-.09,0ZM204.71,355.61c-.08,0-.15,0-.23-.02-.99-.16-1.98-.33-2.96-.51-.14.03-.29.04-.44.03-.27-.02-.51-.11-.71-.25-1.53-.3-3.06-.63-4.57-.99-.78-.19-1.27-.97-1.08-1.76.19-.78.97-1.27,1.76-1.08,1.13.27,2.27.52,3.41.75.03-.36.06-.71.09-1.07.16-1.93.32-3.93.46-5.89.06-.8.76-1.41,1.56-1.35.8.06,1.41.76,1.35,1.56-.14,1.97-.31,3.98-.47,5.92-.04.46-.08.92-.11,1.38.73.13,1.46.25,2.18.37.8.13,1.34.88,1.21,1.67-.11.72-.73,1.23-1.44,1.23ZM248.2,354.65c-.68,0-1.29-.48-1.43-1.17-.16-.79.35-1.56,1.14-1.72,2.82-.58,5.64-1.26,8.4-2.04.78-.22,1.58.23,1.8,1.01.22.78-.23,1.58-1.01,1.8-2.82.8-5.72,1.5-8.6,2.09-.1.02-.2.03-.29.03ZM187.7,351.57c-.15,0-.3-.02-.44-.07-.96-.31-1.93-.63-2.88-.96-1.89-.66-3.72-1.36-5.45-2.08-.74-.31-1.09-1.17-.78-1.91.31-.74,1.17-1.09,1.91-.78,1.67.7,3.45,1.38,5.28,2.02.93.32,1.87.64,2.81.94.77.24,1.19,1.06.95,1.83-.2.62-.77,1.02-1.39,1.02ZM265.02,349.91c-.6,0-1.15-.37-1.37-.96-.28-.76.12-1.59.87-1.87,2.7-.98,5.4-2.08,8-3.25.73-.33,1.6,0,1.93.73.33.73,0,1.6-.73,1.93-2.67,1.21-5.43,2.33-8.2,3.34-.16.06-.33.09-.5.09ZM171.63,344.72c-.25,0-.49-.06-.72-.19-2.72-1.55-5.22-3.26-7.42-5.05-.62-.51-.72-1.43-.21-2.05.51-.62,1.43-.72,2.05-.21,2.08,1.7,4.44,3.31,7.02,4.78.7.4.94,1.29.54,1.99-.27.47-.76.73-1.27.73ZM280.96,342.72c-.52,0-1.02-.28-1.28-.77-.38-.71-.12-1.59.59-1.98,2.31-1.25,4.78-2.65,7.54-4.3.69-.41,1.59-.19,2,.5.41.69.19,1.59-.5,2-2.8,1.67-5.3,3.1-7.65,4.37-.22.12-.46.17-.69.17ZM202.3,337.66s-.02,0-.03,0c-.81-.01-1.45-.68-1.43-1.48.01-.66.02-1.32.02-1.96,0-.26,0-.51,0-.77-.02-2-.11-3.98-.27-5.86-.07-.8.53-1.51,1.33-1.58.8-.07,1.51.53,1.58,1.33.17,1.96.26,4.01.28,6.09,0,.26,0,.53,0,.79,0,.65,0,1.33-.02,2.01-.01.8-.66,1.43-1.46,1.43ZM296.01,333.82c-.49,0-.96-.24-1.24-.69-.42-.68-.22-1.58.47-2.01l1.27-.79c2.02-1.26,4.11-2.56,6.18-3.82.69-.42,1.58-.2,2,.49.42.69.2,1.58-.49,2-2.06,1.25-4.14,2.55-6.16,3.8l-1.27.79c-.24.15-.51.22-.77.22ZM158.26,333.61c-.43,0-.86-.19-1.14-.55-1.06-1.35-2.03-2.76-2.87-4.21-.67-1.15-1.27-2.38-1.78-3.65-.3-.75.06-1.6.81-1.9.75-.3,1.6.06,1.9.81.46,1.14,1,2.24,1.6,3.27.77,1.33,1.66,2.63,2.64,3.87.5.63.39,1.55-.24,2.05-.27.21-.59.31-.9.31ZM310.99,324.78c-.51,0-1-.27-1.27-.74-.39-.7-.15-1.59.56-1.99,2.78-1.56,5.34-2.9,7.82-4.11.72-.35,1.6-.05,1.95.68.35.72.05,1.6-.68,1.95-2.43,1.18-4.94,2.49-7.66,4.02-.23.13-.47.19-.71.19ZM200.73,320.27c-.66,0-1.27-.46-1.42-1.13-.66-2.88-1.54-5.59-2.61-8.05-.32-.74.02-1.6.76-1.92.74-.32,1.6.02,1.92.76,1.14,2.63,2.08,5.51,2.78,8.57.18.78-.31,1.57-1.1,1.75-.11.03-.22.04-.33.04ZM151.82,317.63c-.75,0-1.39-.58-1.45-1.34-.07-.82-.1-1.66-.1-2.48,0-2.29.26-4.53.77-6.67.19-.78.97-1.26,1.76-1.08.78.19,1.27.97,1.08,1.76-.46,1.91-.69,3.93-.69,5.99,0,.74.03,1.5.09,2.24.07.8-.53,1.51-1.33,1.57-.04,0-.08,0-.12,0ZM326.76,317.24c-.59,0-1.14-.36-1.36-.94-.29-.75.09-1.59.84-1.88,2.74-1.05,5.58-1.98,8.42-2.79.78-.22,1.58.23,1.8,1.01.22.77-.23,1.58-1.01,1.8-2.76.78-5.52,1.69-8.18,2.71-.17.07-.35.1-.52.1ZM386.96,313.61c-.12,0-.23-.01-.35-.04-2.77-.69-5.61-1.26-8.45-1.7-.8-.12-1.34-.87-1.22-1.67s.87-1.34,1.67-1.22c2.92.46,5.85,1.05,8.7,1.75.78.19,1.26.98,1.06,1.77-.16.66-.76,1.11-1.41,1.11ZM343.57,312.48c-.69,0-1.3-.49-1.43-1.18-.15-.79.37-1.55,1.16-1.71,2.89-.55,5.84-.99,8.78-1.29.8-.08,1.52.5,1.6,1.3.08.8-.5,1.52-1.3,1.6-2.85.29-5.72.72-8.53,1.25-.09.02-.18.03-.27.03ZM369.7,310.91s-.07,0-.1,0c-2.27-.16-4.58-.23-6.86-.23-.58,0-1.17,0-1.76.02-.81.01-1.47-.63-1.48-1.43-.01-.81.63-1.47,1.43-1.48.6-.01,1.21-.02,1.81-.02,2.35,0,4.72.08,7.06.24.8.05,1.41.75,1.36,1.55-.05.77-.69,1.36-1.45,1.36ZM193.66,304.41c-.44,0-.88-.2-1.16-.58-.49-.65-1.02-1.29-1.56-1.9-1.27-1.43-2.73-2.73-4.36-3.88-.66-.46-.81-1.37-.35-2.03.46-.66,1.37-.81,2.03-.35,1.8,1.27,3.44,2.73,4.85,4.32.59.66,1.16,1.36,1.7,2.07.49.64.36,1.56-.28,2.04-.26.2-.57.3-.88.3ZM156.03,301.02c-.3,0-.6-.09-.86-.28-.65-.47-.8-1.39-.32-2.04,1.41-1.93,3.11-3.58,5.05-4.89.65-.44,1.34-.84,2.03-1.2.72-.37,1.6-.09,1.96.63.37.72.09,1.6-.63,1.96-.6.31-1.18.65-1.74,1.03-1.66,1.12-3.12,2.53-4.32,4.18-.29.39-.73.6-1.18.6ZM179.63,294.45c-.15,0-.3-.02-.44-.07-2.44-.78-4.89-1.17-7.29-1.17-.28,0-.56,0-.83.02-.81.03-1.48-.6-1.51-1.4-.03-.8.6-1.48,1.4-1.51.31-.01.63-.02.95-.02,2.7,0,5.45.44,8.17,1.31.77.24,1.19,1.06.95,1.83-.2.62-.77,1.02-1.39,1.02Z"/>
              <path class="cls-6" d="M454.2,300.04c6.42,35.47-17.12,64.22-52.59,64.22s-69.42-28.75-75.85-64.22c-6.42-35.47,17.12-64.22,52.59-64.22s69.42,28.75,75.85,64.22Z"/>
              <path class="cls-9" d="M388.66,271.92l7.62,15.06c.83,1.63,2.55,2.74,4.27,2.74h15.84c3.84,0,6.33,4.91,3.63,7.17l-11.13,9.31c-1.21,1.01-1.46,2.8-.64,4.43l7.62,15.06c1.85,3.65-1.78,6.69-5.3,4.43l-14.5-9.31c-1.57-1.01-3.45-1.01-4.66,0l-11.13,9.31c-2.7,2.26-7.43-.78-6.9-4.43l2.17-15.06c.23-1.63-.67-3.42-2.24-4.43l-14.5-9.31c-3.52-2.26-2.81-7.17,1.03-7.17h15.84c1.72,0,3.04-1.11,3.27-2.74l2.17-15.06c.53-3.65,5.69-3.65,7.54,0Z"/>
            </g>
            <g>
              <path class="cls-13" d="M88.88,407.7l1.63,10.2c.06.75,1.16,2.49,1.63,3.08,1.93,2.45,6.44,7.93,8.61,8.15,0,0-3.53,3.08-6.93,2.45-3.4-.63-12.28-10.29-12.28-10.29l-2.89-13.6h10.24Z"/>
              <path class="cls-12" d="M81.26,420.39s11.06,10.02,13.19,10.11c2.13.09,3.49-2.95,8.16-1.9,4.67,1.04,3.9,4.12.36,4.12s-11.96,1-15.18-2.72-3.67,2.63-3.67,2.63h-2.85s-3.94-7.75,0-12.24Z"/>
              <path class="cls-13" d="M87.51,128.6l-6.69-2.75c2.34-4.03,3.97-7.13,3.86-7.76-.39-2.13,2.61-10.43,3.99-11.4,1.38-.97,2.94-8.35,3.73-10.06.79-1.71,2.95,1.53,1.48,6.93-1.46,5.4-.27,8.65-.27,8.65,0,0,7.02-4.96,7.89-2.67.87,2.29-11.36,10.38-11.36,10.38l-2.63,8.68Z"/>
              <polygon class="cls-20" points="42.91 257.04 48.43 281.87 59.96 333.74 59.96 333.74 77.96 414.71 91.57 413.02 71.68 250.25 42.91 257.04"/>
              <polygon class="cls-9" points="93.61 407.7 73.04 410.09 76.44 417.16 93.37 415.32 93.61 407.7"/>
              <polygon class="cls-19" points="48.43 281.87 59.96 333.74 52.73 265.65 49.5 267.04 48.43 281.87"/>
              <path class="cls-13" d="M44.43,408.4s-1.1,10.42-.39,14.62,4.76,7.01,1.1,6.39c-3.67-.62-10.9,3.91-11.69-2.54-.04-.36,1-18.91,1-18.91l9.99.43Z"/>
              <path class="cls-12" d="M33.53,424.83s-2.61,6.11.17,7.95l14.01.03c.59,0,1.01-.59.8-1.15-.68-1.75-2.52-4.91-6.97-5.12,0,0-2.48.2-4.73,2.27-2.25,2.07-3.27-3.98-3.27-3.98Z"/>
              <polygon class="cls-12" points="52.73 257.03 46.65 414.71 31.84 414.71 23.64 246.3 52.73 257.03"/>
              <polygon class="cls-9" points="49.08 409.53 28.38 409.26 30.84 416.71 47.87 417.06 49.08 409.53"/>
              <path class="cls-18" d="M19.16,160.27s-18.26,19.12-6.7,25.1c11.56,5.98,21.55-1.73,23.49-4.57,1.94-2.84-11.31-20.97-16.79-20.53Z"/>
              <polygon class="cls-11" points="42.59 184.11 80.5 120.21 91.45 124.03 61.84 201.29 76.28 255.9 23.83 265.66 16.71 237.59 29.84 190.64 42.59 184.11"/>
              <path class="cls-13" d="M28.98,265.66c1.52,2.16,2.54,3.58,2.54,3.58,0,0,11.72,2.7,9.41,4.31-2.3,1.61-6.52.03-3.48,2.55,3.04,2.53,8.55,8.52,2.71,8.69s-9.92-3.78-13.55-10.73c-.79-1.51-2.45-3.74-4.53-6.38l6.9-2.01Z"/>
              <polygon class="cls-14" points="30.25 201.65 22.08 237.6 26.17 256.83 12.76 238.08 30.25 201.65"/>
              <path class="cls-11" d="M28.09,190.52l-16.04,12.32c-1.76,1.35-3.03,3.23-3.63,5.37L.22,237.6c-.51,1.82-.13,3.78,1.01,5.28l23.47,30.88,7.38-5.93-14.03-29.76,15.37-45.85-5.32-1.69Z"/>
              <path class="cls-13" d="M28.09,190.52c1.81,3.71,15.2,9.8,19.8,2.62,4.6-7.18-5.3-9.03-5.3-9.03v-7.58l-11.72-3.33.16,4.15.41,10.6-3.35,2.57Z"/>
              <path class="cls-5" d="M30.87,173.2l.16,4.15c7.09,6.87,10.21,6.23,11.56,4.74v-5.56l-11.72-3.33Z"/>
              <ellipse class="cls-18" cx="21.54" cy="154.64" rx="9.32" ry="6.02" transform="translate(-134.35 163.29) rotate(-85.24)"/>
              <path class="cls-13" d="M25.36,164.43s-2.96-.62-3.64.8c-.69,1.42,1.17,5.74,6.67,5.53l-3.03-6.34Z"/>
              <ellipse class="cls-18" cx="42.85" cy="154.24" rx="6.02" ry="10.75" transform="translate(-28.78 11.08) rotate(-11.06)"/>
              <path class="cls-13" d="M46.72,156.27c1.89,11.41-.86,21.88-6.25,22.67-5.18.76-16.55-7.35-16.44-17.59,0-.43.03-.86.08-1.3,1.26-10.85,6.86-11.49,6.86-11.49,0,0,11.17-3.8,14.85,4.57.39.9.7,1.94.9,3.14Z"/>
              <path class="cls-5" d="M45.82,153.13c-.43.76-.91,1.51-1.43,2.26-5.42,7.71-13.75,11.19-18.59,7.78-.7-.49-1.29-1.11-1.77-1.81,0-.43.03-.86.08-1.3,1.26-10.85,6.86-11.49,6.86-11.49,0,0,11.17-3.8,14.85,4.57Z"/>
              <path class="cls-18" d="M41.14,152.83s4.9,2.84,6.58,7.41c0,0,1.49-1.42-.28-5.6-1.77-4.18-5.17-5.71-5.17-5.71l-1.14,3.9Z"/>
              <ellipse class="cls-12" cx="32.98" cy="150.19" rx="17.06" ry="10.73" transform="translate(-108.82 90.71) rotate(-54.86)"/>
              <path class="cls-9" d="M35.72,171.77l7.23-1.23s.56,4.78-2.56,5.27-4.21-1.93-4.67-4.04Z"/>
              <path class="cls-14" d="M41.38,198.7h4.71c5.45,36.79,14.29,42.08,14.29,42.08l-4.56,5.38-5.25-2.27c-10.5-17.81-9.11-45.13-9.11-45.13l-.09-.07Z"/>
              <path class="cls-9" d="M45.89,194.51l-4.15.78-1.98,3.15,1.84,1.14s.1,26.62,11.56,43.33l5.36,1.91,4.26-5.49s-9.13-4.65-16.59-40.15l2.67-2.78-2.98-1.9Z"/>
              <polygon class="cls-9" points="92.41 124.11 80.15 119.51 75.96 124.51 91.66 130.89 92.41 124.11"/>
              <polygon class="cls-9" points="24.1 275.22 34 266.66 31.62 260.58 18.51 271.32 24.1 275.22"/>
            </g>
          </g>
        </g>
      </g>
    </g>
  </g>
</svg>