<?xml version="1.0" encoding="UTF-8"?>
<svg id="Layer_2" data-name="Layer 2" xmlns="http://www.w3.org/2000/svg" viewBox="0 0 434.21 387.91">
  <defs>
    <style>
      .cls-1 {
        fill: #269e4e;
      }

      .cls-2 {
        fill: #ff7a00;
      }

      .cls-3 {
        fill: #0c0c0c;
      }

      .cls-4 {
        fill: #a52121;
      }
    </style>
  </defs>
  <g id="Layer_1-2" data-name="Layer 1">
    <g>
      <path class="cls-3" d="M237.83,7.48c63.64-20.62,137.68,2.14,174.85,59.07,12.93,19.87,22.46,43.88,21.45,67.83-.93,26.36-17.11,44.3-32.82,65.13-8.72,11.53-18.96,26.33-27.11,39.65-12.72,20.58-23.22,42.18-32.25,64.62-8,18.76-13.21,39.65-28.76,53.24-10.82,9.87-24.23,17.2-38.17,22.25-97.16,31.35-217.49-26.6-261.69-110.95C-51.82,132.83,137.87,40.7,237.67,7.53l.16-.05Z"/>
      <path class="cls-2" d="M147.9,266.19c.95,6.12.31,10.88-1.92,14.28-2.23,3.4-5.68,5.46-10.36,6.19-2.88.45-5.57.22-8.06-.69-2.49-.91-4.58-2.61-6.28-5.1-1.7-2.49-2.85-5.68-3.45-9.56-.65-4.17-.69-7.72-.13-10.66.56-2.94,1.84-5.31,3.85-7.09,2-1.79,4.74-2.95,8.2-3.49,2.5-.39,4.75-.34,6.76.13,2.01.48,3.79,1.4,5.36,2.79,1.56,1.38,2.84,3.16,3.83,5.34.99,2.18,1.73,4.8,2.21,7.88ZM138.84,267.11c-.65-4.2-1.57-7.18-2.77-8.95-1.19-1.77-2.93-2.47-5.2-2.12-1.54.24-2.69.89-3.46,1.94-.77,1.06-1.19,2.5-1.25,4.33s.12,4.12.55,6.88.97,5.15,1.59,6.89c.62,1.74,1.44,3,2.48,3.77,1.04.77,2.34,1.04,3.91.8,2.37-.37,3.82-1.63,4.36-3.78.54-2.15.47-5.4-.21-9.76ZM178.07,249.05l-30.02,70.77c-.75,1.92-1.77,2.98-3.05,3.18-.74.11-1.52-.05-2.34-.5-.82-.45-1.31-1.12-1.45-2.02-.1-.67.09-1.54.58-2.6l30.18-71.34c.52-1.29,1-2.28,1.44-2.96.44-.67,1.15-1.09,2.15-1.24s1.78.01,2.46.48c.68.47,1.09,1.17,1.24,2.1.1.67-.29,2.05-1.18,4.12ZM202.52,293.31c.95,6.12.31,10.88-1.92,14.28-2.23,3.4-5.68,5.46-10.36,6.19-2.92.45-5.62.22-8.11-.71-2.49-.93-4.59-2.62-6.3-5.08-1.71-2.46-2.87-5.64-3.48-9.55-.97-6.25-.51-11.14,1.39-14.66,1.9-3.53,5.44-5.69,10.63-6.5,2.5-.39,4.75-.34,6.74.14,1.99.48,3.78,1.38,5.34,2.71,1.57,1.33,2.85,3.09,3.85,5.29,1,2.19,1.73,4.83,2.21,7.9ZM193.45,294.22c-.64-4.13-1.56-7.08-2.75-8.85-1.19-1.77-2.93-2.47-5.2-2.12-1.6.25-2.78.89-3.54,1.93-.76,1.04-1.19,2.46-1.28,4.26-.1,1.8.07,4.1.5,6.89.67,4.29,1.61,7.36,2.83,9.21,1.22,1.85,2.99,2.59,5.29,2.23s3.78-1.63,4.33-3.8c.55-2.17.49-5.42-.18-9.74Z"/>
      <path class="cls-1" d="M195.49,127.98l-18.2,2.82,12.86,82.86-39.68,6.16c-34.8,5.4-58.64,37.99-53.24,72.8l5.73,36.92-33.83,5.25c-4.18.65-8.09-2.21-8.74-6.39l-27.2-175.23-14.86,2.31c-8.3,1.29-13.79-8.37-8.44-14.84L86.29,48.27c2.95-3.56,8.09-4.36,11.98-1.86l100.77,64.86c7.06,4.55,4.76,15.41-3.54,16.7Z"/>
      <path class="cls-2" d="M286.33,100.37c-.95-6.12-.31-10.88,1.92-14.28,2.23-3.4,5.68-5.46,10.36-6.19,2.88-.45,5.57-.22,8.06.69,2.49.91,4.58,2.61,6.28,5.1,1.7,2.49,2.85,5.68,3.45,9.56.65,4.17.69,7.72.13,10.66-.56,2.94-1.84,5.31-3.85,7.09-2,1.79-4.74,2.95-8.2,3.49-2.5.39-4.75.34-6.76-.13-2.01-.48-3.79-1.4-5.36-2.79-1.56-1.38-2.84-3.16-3.83-5.34-.99-2.18-1.73-4.8-2.21-7.88ZM295.39,99.46c.65,4.2,1.57,7.18,2.77,8.95,1.19,1.77,2.93,2.47,5.2,2.12,1.54-.24,2.69-.89,3.46-1.94.77-1.06,1.19-2.5,1.25-4.33s-.12-4.12-.55-6.88-.97-5.15-1.59-6.89c-.62-1.74-1.44-3-2.48-3.77-1.04-.77-2.34-1.04-3.91-.8-2.37.37-3.82,1.63-4.36,3.78-.54,2.15-.47,5.4.21,9.76ZM256.16,117.51l30.02-70.77c.75-1.92,1.77-2.98,3.05-3.18.74-.11,1.52.05,2.34.5.82.45,1.31,1.12,1.45,2.02.1.67-.09,1.54-.58,2.6l-30.18,71.34c-.52,1.29-1,2.28-1.44,2.96-.44.67-1.15,1.09-2.15,1.24s-1.78-.01-2.46-.48c-.68-.47-1.09-1.17-1.24-2.1-.1-.67.29-2.05,1.18-4.12ZM231.71,73.26c-.95-6.12-.31-10.88,1.92-14.28,2.23-3.4,5.68-5.46,10.36-6.19,2.92-.45,5.62-.22,8.11.71,2.49.93,4.59,2.62,6.3,5.08,1.71,2.46,2.87,5.64,3.48,9.55.97,6.25.51,11.14-1.39,14.66-1.9,3.53-5.44,5.69-10.63,6.5-2.5.39-4.75.34-6.74-.14-1.99-.48-3.78-1.38-5.34-2.71-1.57-1.33-2.85-3.09-3.85-5.29-1-2.19-1.73-4.83-2.21-7.9ZM240.78,72.34c.64,4.13,1.56,7.08,2.75,8.85,1.19,1.77,2.93,2.47,5.2,2.12,1.6-.25,2.78-.89,3.54-1.93.76-1.04,1.19-2.46,1.28-4.26.1-1.8-.07-4.1-.5-6.89-.67-4.29-1.61-7.36-2.83-9.21-1.22-1.85-2.99-2.59-5.29-2.23s-3.78,1.63-4.33,3.8c-.55,2.17-.49,5.42.18,9.74Z"/>
      <path class="cls-4" d="M238.74,238.59l18.2-2.82-12.86-82.86,39.68-6.16c34.8-5.4,58.64-37.99,53.24-72.8l-5.73-36.92,33.83-5.25c4.18-.65,8.09,2.21,8.74,6.39l27.2,175.23,14.86-2.31c8.3-1.29,13.79,8.37,8.44,14.84l-76.37,92.35c-2.95,3.56-8.09,4.36-11.98,1.86l-100.77-64.86c-7.06-4.55-4.76-15.41,3.54-16.7Z"/>
    </g>
  </g>
</svg>